<mxfile host="app.diagrams.net" modified="2022-11-13T09:04:01.378Z" agent="5.0 (Windows NT 10.0; Win64; x64) AppleWebKit/537.36 (KHTML, like Gecko) Chrome/107.0.0.0 Safari/537.36 Edg/107.0.1418.35" etag="UYSF9UObenKGBqubUoP2" version="20.5.3" type="github" pages="6">
  <diagram id="C5RBs43oDa-KdzZeNtuy" name="Qns1">
    <mxGraphModel dx="2060" dy="1184" grid="1" gridSize="10" guides="1" tooltips="1" connect="1" arrows="1" fold="1" page="1" pageScale="1" pageWidth="827" pageHeight="1169" math="0" shadow="0">
      <root>
        <mxCell id="WIyWlLk6GJQsqaUBKTNV-0" />
        <mxCell id="WIyWlLk6GJQsqaUBKTNV-1" parent="WIyWlLk6GJQsqaUBKTNV-0" />
        <mxCell id="CGd-u-WrV2OYmyqMV1Jz-0" value="&lt;p style=&quot;margin:0px;margin-top:4px;text-align:center;&quot;&gt;&lt;b&gt;Orders&lt;/b&gt;&lt;/p&gt;&lt;hr size=&quot;1&quot;&gt;&lt;p style=&quot;margin: 0px 0px 0px 4px;&quot;&gt;OrderNo&lt;/p&gt;&lt;p style=&quot;margin: 0px 0px 0px 4px;&quot;&gt;DateTime&lt;/p&gt;&lt;hr size=&quot;1&quot;&gt;&lt;p style=&quot;margin:0px;margin-left:4px;&quot;&gt;create()&lt;/p&gt;&lt;p style=&quot;margin:0px;margin-left:4px;&quot;&gt;update()&lt;/p&gt;&lt;p style=&quot;margin:0px;margin-left:4px;&quot;&gt;delete()&lt;/p&gt;&lt;p style=&quot;margin:0px;margin-left:4px;&quot;&gt;get()&lt;/p&gt;&lt;p style=&quot;margin:0px;margin-left:4px;&quot;&gt;&lt;br&gt;&lt;/p&gt;" style="verticalAlign=top;align=left;overflow=fill;fontSize=12;fontFamily=Helvetica;html=1;" parent="WIyWlLk6GJQsqaUBKTNV-1" vertex="1">
          <mxGeometry x="60" y="20" width="160" height="250" as="geometry" />
        </mxCell>
        <mxCell id="CGd-u-WrV2OYmyqMV1Jz-1" value="&lt;p style=&quot;margin:0px;margin-top:4px;text-align:center;&quot;&gt;&lt;b&gt;Points&lt;/b&gt;&lt;/p&gt;&lt;hr size=&quot;1&quot;&gt;&lt;p style=&quot;margin:0px;margin-left:4px;&quot;&gt;Amount&lt;/p&gt;&lt;hr size=&quot;1&quot;&gt;&lt;p style=&quot;margin:0px;margin-left:4px;&quot;&gt;Add()&lt;/p&gt;&lt;p style=&quot;margin:0px;margin-left:4px;&quot;&gt;update()&lt;/p&gt;" style="verticalAlign=top;align=left;overflow=fill;fontSize=12;fontFamily=Helvetica;html=1;fillColor=#FF2908;" parent="WIyWlLk6GJQsqaUBKTNV-1" vertex="1">
          <mxGeometry x="254" y="300" width="160" height="180" as="geometry" />
        </mxCell>
        <mxCell id="CGd-u-WrV2OYmyqMV1Jz-2" value="&lt;p style=&quot;margin:0px;margin-top:4px;text-align:center;&quot;&gt;&lt;b&gt;Discounts&lt;/b&gt;&lt;/p&gt;&lt;hr size=&quot;1&quot;&gt;&lt;p style=&quot;margin:0px;margin-left:4px;&quot;&gt;DiscID&lt;/p&gt;&lt;p style=&quot;margin:0px;margin-left:4px;&quot;&gt;DiscountRate&lt;/p&gt;&lt;hr size=&quot;1&quot;&gt;&lt;p style=&quot;margin:0px;margin-left:4px;&quot;&gt;create()&lt;/p&gt;&lt;p style=&quot;margin:0px;margin-left:4px;&quot;&gt;update()&lt;/p&gt;&lt;p style=&quot;margin:0px;margin-left:4px;&quot;&gt;delete()&lt;/p&gt;&lt;p style=&quot;margin:0px;margin-left:4px;&quot;&gt;get()&lt;/p&gt;&lt;p style=&quot;margin:0px;margin-left:4px;&quot;&gt;&lt;br&gt;&lt;/p&gt;" style="verticalAlign=top;align=left;overflow=fill;fontSize=12;fontFamily=Helvetica;html=1;fillColor=#FF2908;" parent="WIyWlLk6GJQsqaUBKTNV-1" vertex="1">
          <mxGeometry x="60" y="300" width="160" height="180" as="geometry" />
        </mxCell>
        <mxCell id="CGd-u-WrV2OYmyqMV1Jz-3" value="&lt;p style=&quot;margin:0px;margin-top:4px;text-align:center;&quot;&gt;&lt;b&gt;Fishes&lt;/b&gt;&lt;/p&gt;&lt;hr size=&quot;1&quot;&gt;&lt;p style=&quot;margin:0px;margin-left:4px;&quot;&gt;FishID&lt;/p&gt;&lt;p style=&quot;margin:0px;margin-left:4px;&quot;&gt;Desc&lt;/p&gt;&lt;p style=&quot;margin:0px;margin-left:4px;&quot;&gt;Type&lt;/p&gt;&lt;p style=&quot;margin:0px;margin-left:4px;&quot;&gt;Price&lt;/p&gt;&lt;hr size=&quot;1&quot;&gt;&lt;p style=&quot;margin:0px;margin-left:4px;&quot;&gt;add()&lt;/p&gt;&lt;p style=&quot;margin:0px;margin-left:4px;&quot;&gt;get()&lt;/p&gt;&lt;p style=&quot;margin:0px;margin-left:4px;&quot;&gt;update()&lt;/p&gt;&lt;p style=&quot;margin:0px;margin-left:4px;&quot;&gt;delete()&lt;/p&gt;" style="verticalAlign=top;align=left;overflow=fill;fontSize=12;fontFamily=Helvetica;html=1;" parent="WIyWlLk6GJQsqaUBKTNV-1" vertex="1">
          <mxGeometry x="250" y="20" width="160" height="250" as="geometry" />
        </mxCell>
        <mxCell id="CGd-u-WrV2OYmyqMV1Jz-4" value="&lt;p style=&quot;margin:0px;margin-top:4px;text-align:center;&quot;&gt;&lt;b&gt;Customers&lt;/b&gt;&lt;/p&gt;&lt;hr size=&quot;1&quot;&gt;&lt;p style=&quot;margin:0px;margin-left:4px;&quot;&gt;CustomerID&lt;/p&gt;&lt;p style=&quot;margin:0px;margin-left:4px;&quot;&gt;Type&lt;/p&gt;&lt;hr size=&quot;1&quot;&gt;&lt;p style=&quot;margin:0px;margin-left:4px;&quot;&gt;Create()&lt;/p&gt;&lt;p style=&quot;margin:0px;margin-left:4px;&quot;&gt;update()&lt;/p&gt;&lt;p style=&quot;margin:0px;margin-left:4px;&quot;&gt;delete()&lt;/p&gt;&lt;p style=&quot;margin:0px;margin-left:4px;&quot;&gt;get()&lt;/p&gt;&lt;p style=&quot;margin:0px;margin-left:4px;&quot;&gt;discount()&lt;/p&gt;&lt;p style=&quot;margin:0px;margin-left:4px;&quot;&gt;addpoints()&lt;/p&gt;" style="verticalAlign=top;align=left;overflow=fill;fontSize=12;fontFamily=Helvetica;html=1;" parent="WIyWlLk6GJQsqaUBKTNV-1" vertex="1">
          <mxGeometry x="630" y="20" width="160" height="250" as="geometry" />
        </mxCell>
        <mxCell id="CGd-u-WrV2OYmyqMV1Jz-5" value="&lt;p style=&quot;margin:0px;margin-top:4px;text-align:center;&quot;&gt;&lt;b&gt;Invoices&lt;/b&gt;&lt;/p&gt;&lt;hr size=&quot;1&quot;&gt;&lt;p style=&quot;margin:0px;margin-left:4px;&quot;&gt;InvoiceNo&lt;/p&gt;&lt;hr size=&quot;1&quot;&gt;&lt;p style=&quot;margin:0px;margin-left:4px;&quot;&gt;Create()&lt;/p&gt;&lt;p style=&quot;margin:0px;margin-left:4px;&quot;&gt;update()&lt;/p&gt;&lt;p style=&quot;margin:0px;margin-left:4px;&quot;&gt;delete()&lt;/p&gt;&lt;p style=&quot;margin:0px;margin-left:4px;&quot;&gt;get()&lt;/p&gt;&lt;p style=&quot;margin:0px;margin-left:4px;&quot;&gt;prepare()&lt;/p&gt;" style="verticalAlign=top;align=left;overflow=fill;fontSize=12;fontFamily=Helvetica;html=1;" parent="WIyWlLk6GJQsqaUBKTNV-1" vertex="1">
          <mxGeometry x="630" y="300" width="160" height="180" as="geometry" />
        </mxCell>
        <mxCell id="CGd-u-WrV2OYmyqMV1Jz-6" value="&lt;p style=&quot;margin:0px;margin-top:4px;text-align:center;&quot;&gt;&lt;b&gt;Employee&lt;/b&gt;&lt;/p&gt;&lt;hr size=&quot;1&quot;&gt;&lt;p style=&quot;margin:0px;margin-left:4px;&quot;&gt;StaffID&lt;/p&gt;&lt;p style=&quot;margin:0px;margin-left:4px;&quot;&gt;Name&lt;/p&gt;&lt;p style=&quot;margin:0px;margin-left:4px;&quot;&gt;Designation&lt;/p&gt;&lt;p style=&quot;margin:0px;margin-left:4px;&quot;&gt;Email&lt;/p&gt;&lt;p style=&quot;margin:0px;margin-left:4px;&quot;&gt;ContactNo&lt;/p&gt;&lt;hr size=&quot;1&quot;&gt;&lt;p style=&quot;margin:0px;margin-left:4px;&quot;&gt;create()&lt;/p&gt;&lt;p style=&quot;margin:0px;margin-left:4px;&quot;&gt;update()&lt;/p&gt;&lt;p style=&quot;margin:0px;margin-left:4px;&quot;&gt;delete()&lt;/p&gt;&lt;p style=&quot;margin:0px;margin-left:4px;&quot;&gt;get()&lt;/p&gt;&lt;p style=&quot;margin:0px;margin-left:4px;&quot;&gt;process()&lt;/p&gt;" style="verticalAlign=top;align=left;overflow=fill;fontSize=12;fontFamily=Helvetica;html=1;" parent="WIyWlLk6GJQsqaUBKTNV-1" vertex="1">
          <mxGeometry x="437" y="20" width="160" height="250" as="geometry" />
        </mxCell>
        <mxCell id="CGd-u-WrV2OYmyqMV1Jz-7" value="&lt;p style=&quot;margin:0px;margin-top:4px;text-align:center;&quot;&gt;&lt;b&gt;Gift&lt;/b&gt;&lt;/p&gt;&lt;hr size=&quot;1&quot;&gt;&lt;p style=&quot;margin:0px;margin-left:4px;&quot;&gt;GiftID&lt;/p&gt;&lt;hr size=&quot;1&quot;&gt;&lt;p style=&quot;margin:0px;margin-left:4px;&quot;&gt;Claim()&lt;/p&gt;&lt;p style=&quot;margin:0px;margin-left:4px;&quot;&gt;Create()&lt;/p&gt;&lt;p style=&quot;margin:0px;margin-left:4px;&quot;&gt;Update()&lt;/p&gt;&lt;p style=&quot;margin:0px;margin-left:4px;&quot;&gt;Delete()&lt;/p&gt;&lt;p style=&quot;margin:0px;margin-left:4px;&quot;&gt;Get()&lt;/p&gt;" style="verticalAlign=top;align=left;overflow=fill;fontSize=12;fontFamily=Helvetica;html=1;fillColor=#FF2908;" parent="WIyWlLk6GJQsqaUBKTNV-1" vertex="1">
          <mxGeometry x="437" y="300" width="160" height="180" as="geometry" />
        </mxCell>
        <mxCell id="CGd-u-WrV2OYmyqMV1Jz-8" value="&lt;p style=&quot;margin:0px;margin-top:4px;text-align:center;&quot;&gt;&lt;b&gt;OrdersLine&lt;/b&gt;&lt;/p&gt;&lt;hr size=&quot;1&quot;&gt;&lt;p style=&quot;margin: 0px 0px 0px 4px;&quot;&gt;OrderLineNo&lt;/p&gt;&lt;p style=&quot;margin: 0px 0px 0px 4px;&quot;&gt;Quantity&lt;/p&gt;&lt;hr size=&quot;1&quot;&gt;&lt;p style=&quot;margin:0px;margin-left:4px;&quot;&gt;create()&lt;/p&gt;&lt;p style=&quot;margin:0px;margin-left:4px;&quot;&gt;get()&lt;/p&gt;&lt;p style=&quot;margin:0px;margin-left:4px;&quot;&gt;update()&lt;/p&gt;&lt;p style=&quot;margin:0px;margin-left:4px;&quot;&gt;delete()&lt;/p&gt;" style="verticalAlign=top;align=left;overflow=fill;fontSize=12;fontFamily=Helvetica;html=1;" parent="WIyWlLk6GJQsqaUBKTNV-1" vertex="1">
          <mxGeometry x="64" y="500" width="160" height="140" as="geometry" />
        </mxCell>
      </root>
    </mxGraphModel>
  </diagram>
  <diagram id="scnqAaQUctr6DpnKQXp9" name="Qns1Ans">
    <mxGraphModel dx="2060" dy="1184" grid="1" gridSize="10" guides="1" tooltips="1" connect="1" arrows="1" fold="1" page="1" pageScale="1" pageWidth="850" pageHeight="1100" math="0" shadow="0">
      <root>
        <mxCell id="0" />
        <mxCell id="1" parent="0" />
        <mxCell id="ckWhGiv3XX0twTw1j-6I-4" value="&lt;p style=&quot;margin:0px;margin-top:4px;text-align:center;&quot;&gt;&lt;b&gt;Invoice&lt;/b&gt;&lt;/p&gt;&lt;hr size=&quot;1&quot;&gt;&lt;div style=&quot;height:2px;&quot;&gt;&lt;/div&gt;&lt;hr size=&quot;1&quot;&gt;&lt;div style=&quot;height:2px;&quot;&gt;&lt;/div&gt;" style="verticalAlign=top;align=left;overflow=fill;fontSize=12;fontFamily=Helvetica;html=1;" parent="1" vertex="1">
          <mxGeometry x="390" y="70" width="140" height="60" as="geometry" />
        </mxCell>
        <mxCell id="ckWhGiv3XX0twTw1j-6I-5" value="&lt;p style=&quot;margin:0px;margin-top:4px;text-align:center;&quot;&gt;&lt;b&gt;Order&lt;/b&gt;&lt;/p&gt;&lt;hr size=&quot;1&quot;&gt;&lt;div style=&quot;height:2px;&quot;&gt;&lt;/div&gt;&lt;hr size=&quot;1&quot;&gt;&lt;div style=&quot;height:2px;&quot;&gt;&lt;/div&gt;" style="verticalAlign=top;align=left;overflow=fill;fontSize=12;fontFamily=Helvetica;html=1;" parent="1" vertex="1">
          <mxGeometry x="390" y="250" width="140" height="60" as="geometry" />
        </mxCell>
        <mxCell id="ckWhGiv3XX0twTw1j-6I-6" value="&lt;p style=&quot;margin:0px;margin-top:4px;text-align:center;&quot;&gt;&lt;b&gt;Customer&lt;/b&gt;&lt;/p&gt;&lt;hr size=&quot;1&quot;&gt;&lt;div style=&quot;height:2px;&quot;&gt;&lt;/div&gt;&lt;hr size=&quot;1&quot;&gt;&lt;div style=&quot;height:2px;&quot;&gt;&lt;/div&gt;" style="verticalAlign=top;align=left;overflow=fill;fontSize=12;fontFamily=Helvetica;html=1;" parent="1" vertex="1">
          <mxGeometry x="110" y="250" width="140" height="60" as="geometry" />
        </mxCell>
        <mxCell id="ckWhGiv3XX0twTw1j-6I-7" value="&lt;p style=&quot;margin:0px;margin-top:4px;text-align:center;&quot;&gt;&lt;b&gt;OrderLineItem&lt;/b&gt;&lt;/p&gt;&lt;hr size=&quot;1&quot;&gt;&lt;div style=&quot;height:2px;&quot;&gt;&lt;/div&gt;&lt;hr size=&quot;1&quot;&gt;&lt;div style=&quot;height:2px;&quot;&gt;&lt;/div&gt;" style="verticalAlign=top;align=left;overflow=fill;fontSize=12;fontFamily=Helvetica;html=1;" parent="1" vertex="1">
          <mxGeometry x="670" y="250" width="140" height="60" as="geometry" />
        </mxCell>
        <mxCell id="ckWhGiv3XX0twTw1j-6I-8" value="&lt;p style=&quot;margin:0px;margin-top:4px;text-align:center;&quot;&gt;&lt;b&gt;FishItem&lt;/b&gt;&lt;/p&gt;&lt;hr size=&quot;1&quot;&gt;&lt;div style=&quot;height:2px;&quot;&gt;&lt;/div&gt;&lt;hr size=&quot;1&quot;&gt;&lt;div style=&quot;height:2px;&quot;&gt;&lt;/div&gt;" style="verticalAlign=top;align=left;overflow=fill;fontSize=12;fontFamily=Helvetica;html=1;" parent="1" vertex="1">
          <mxGeometry x="670" y="70" width="140" height="60" as="geometry" />
        </mxCell>
        <mxCell id="ckWhGiv3XX0twTw1j-6I-9" value="&lt;p style=&quot;margin:0px;margin-top:4px;text-align:center;&quot;&gt;&lt;b&gt;Employee&lt;/b&gt;&lt;/p&gt;&lt;hr size=&quot;1&quot;&gt;&lt;div style=&quot;height:2px;&quot;&gt;&lt;/div&gt;&lt;hr size=&quot;1&quot;&gt;&lt;div style=&quot;height:2px;&quot;&gt;&lt;/div&gt;" style="verticalAlign=top;align=left;overflow=fill;fontSize=12;fontFamily=Helvetica;html=1;" parent="1" vertex="1">
          <mxGeometry x="390" y="420" width="140" height="60" as="geometry" />
        </mxCell>
        <mxCell id="ckWhGiv3XX0twTw1j-6I-10" value="&lt;p style=&quot;margin:0px;margin-top:4px;text-align:center;&quot;&gt;&lt;b&gt;Corporate&lt;/b&gt;&lt;/p&gt;&lt;hr size=&quot;1&quot;&gt;&lt;div style=&quot;height:2px;&quot;&gt;&lt;br&gt;&lt;/div&gt;DiscountRate&lt;hr size=&quot;1&quot;&gt;&lt;div style=&quot;height:2px;&quot;&gt;&lt;br&gt;&lt;/div&gt;" style="verticalAlign=top;align=left;overflow=fill;fontSize=12;fontFamily=Helvetica;html=1;" parent="1" vertex="1">
          <mxGeometry x="25" y="420" width="140" height="60" as="geometry" />
        </mxCell>
        <mxCell id="ckWhGiv3XX0twTw1j-6I-11" value="&lt;p style=&quot;margin:0px;margin-top:4px;text-align:center;&quot;&gt;&lt;b&gt;Individual&lt;/b&gt;&lt;/p&gt;&lt;hr size=&quot;1&quot;&gt;&lt;div style=&quot;height:2px;&quot;&gt;&lt;br&gt;&lt;/div&gt;BonusPoint&lt;hr size=&quot;1&quot;&gt;&lt;div style=&quot;height:2px;&quot;&gt;&lt;/div&gt;" style="verticalAlign=top;align=left;overflow=fill;fontSize=12;fontFamily=Helvetica;html=1;" parent="1" vertex="1">
          <mxGeometry x="195" y="420" width="140" height="60" as="geometry" />
        </mxCell>
        <mxCell id="ckWhGiv3XX0twTw1j-6I-13" value="" style="endArrow=block;endSize=16;endFill=0;html=1;rounded=0;exitX=0.5;exitY=0;exitDx=0;exitDy=0;entryX=0.25;entryY=1;entryDx=0;entryDy=0;" parent="1" source="ckWhGiv3XX0twTw1j-6I-10" target="ckWhGiv3XX0twTw1j-6I-6" edge="1">
          <mxGeometry width="160" relative="1" as="geometry">
            <mxPoint x="340" y="370" as="sourcePoint" />
            <mxPoint x="500" y="370" as="targetPoint" />
          </mxGeometry>
        </mxCell>
        <mxCell id="ckWhGiv3XX0twTw1j-6I-14" value="" style="endArrow=block;endSize=16;endFill=0;html=1;rounded=0;exitX=0.5;exitY=0;exitDx=0;exitDy=0;entryX=0.75;entryY=1;entryDx=0;entryDy=0;" parent="1" source="ckWhGiv3XX0twTw1j-6I-11" target="ckWhGiv3XX0twTw1j-6I-6" edge="1">
          <mxGeometry width="160" relative="1" as="geometry">
            <mxPoint x="105" y="430" as="sourcePoint" />
            <mxPoint x="155" y="320" as="targetPoint" />
          </mxGeometry>
        </mxCell>
        <mxCell id="l5qT5_21L_Z3jOt7tFSg-1" value="Raises" style="endArrow=none;html=1;rounded=0;entryX=0.5;entryY=1;entryDx=0;entryDy=0;exitX=0.5;exitY=0;exitDx=0;exitDy=0;" parent="1" source="ckWhGiv3XX0twTw1j-6I-5" target="ckWhGiv3XX0twTw1j-6I-4" edge="1">
          <mxGeometry width="50" height="50" relative="1" as="geometry">
            <mxPoint x="400" y="630" as="sourcePoint" />
            <mxPoint x="450" y="580" as="targetPoint" />
          </mxGeometry>
        </mxCell>
        <mxCell id="l5qT5_21L_Z3jOt7tFSg-2" value="Places" style="endArrow=none;html=1;rounded=0;entryX=0;entryY=0.5;entryDx=0;entryDy=0;exitX=1;exitY=0.5;exitDx=0;exitDy=0;" parent="1" source="ckWhGiv3XX0twTw1j-6I-6" target="ckWhGiv3XX0twTw1j-6I-5" edge="1">
          <mxGeometry width="50" height="50" relative="1" as="geometry">
            <mxPoint x="470" y="260" as="sourcePoint" />
            <mxPoint x="470" y="140" as="targetPoint" />
          </mxGeometry>
        </mxCell>
        <mxCell id="l5qT5_21L_Z3jOt7tFSg-3" value="Composes of" style="endArrow=diamondThin;endFill=1;endSize=24;html=1;rounded=0;exitX=0;exitY=0.5;exitDx=0;exitDy=0;entryX=1;entryY=0.5;entryDx=0;entryDy=0;" parent="1" source="ckWhGiv3XX0twTw1j-6I-7" target="ckWhGiv3XX0twTw1j-6I-5" edge="1">
          <mxGeometry width="160" relative="1" as="geometry">
            <mxPoint x="340" y="600" as="sourcePoint" />
            <mxPoint x="500" y="600" as="targetPoint" />
          </mxGeometry>
        </mxCell>
        <mxCell id="l5qT5_21L_Z3jOt7tFSg-4" value="Contains" style="endArrow=none;html=1;rounded=0;entryX=0.5;entryY=1;entryDx=0;entryDy=0;exitX=0.5;exitY=0;exitDx=0;exitDy=0;" parent="1" source="ckWhGiv3XX0twTw1j-6I-7" target="ckWhGiv3XX0twTw1j-6I-8" edge="1">
          <mxGeometry width="50" height="50" relative="1" as="geometry">
            <mxPoint x="470" y="260" as="sourcePoint" />
            <mxPoint x="470" y="140" as="targetPoint" />
          </mxGeometry>
        </mxCell>
        <mxCell id="l5qT5_21L_Z3jOt7tFSg-5" value="Processes" style="endArrow=none;html=1;rounded=0;entryX=0.5;entryY=1;entryDx=0;entryDy=0;" parent="1" source="ckWhGiv3XX0twTw1j-6I-9" target="ckWhGiv3XX0twTw1j-6I-5" edge="1">
          <mxGeometry width="50" height="50" relative="1" as="geometry">
            <mxPoint x="710" y="260" as="sourcePoint" />
            <mxPoint x="710" y="140" as="targetPoint" />
          </mxGeometry>
        </mxCell>
        <mxCell id="l5qT5_21L_Z3jOt7tFSg-9" value="1" style="text;html=1;strokeColor=none;fillColor=none;align=center;verticalAlign=middle;whiteSpace=wrap;rounded=0;" parent="1" vertex="1">
          <mxGeometry x="440" y="390" width="60" height="30" as="geometry" />
        </mxCell>
        <mxCell id="l5qT5_21L_Z3jOt7tFSg-10" value="*" style="text;html=1;strokeColor=none;fillColor=none;align=center;verticalAlign=middle;whiteSpace=wrap;rounded=0;" parent="1" vertex="1">
          <mxGeometry x="440" y="310" width="60" height="30" as="geometry" />
        </mxCell>
        <mxCell id="l5qT5_21L_Z3jOt7tFSg-12" value="1" style="text;html=1;strokeColor=none;fillColor=none;align=center;verticalAlign=middle;whiteSpace=wrap;rounded=0;" parent="1" vertex="1">
          <mxGeometry x="230" y="280" width="60" height="30" as="geometry" />
        </mxCell>
        <mxCell id="l5qT5_21L_Z3jOt7tFSg-13" value="1..*" style="text;html=1;strokeColor=none;fillColor=none;align=center;verticalAlign=middle;whiteSpace=wrap;rounded=0;" parent="1" vertex="1">
          <mxGeometry x="335" y="280" width="60" height="30" as="geometry" />
        </mxCell>
        <mxCell id="l5qT5_21L_Z3jOt7tFSg-15" value="1" style="text;html=1;strokeColor=none;fillColor=none;align=center;verticalAlign=middle;whiteSpace=wrap;rounded=0;" parent="1" vertex="1">
          <mxGeometry x="510" y="280" width="60" height="30" as="geometry" />
        </mxCell>
        <mxCell id="l5qT5_21L_Z3jOt7tFSg-16" value="1..*" style="text;html=1;strokeColor=none;fillColor=none;align=center;verticalAlign=middle;whiteSpace=wrap;rounded=0;" parent="1" vertex="1">
          <mxGeometry x="620" y="280" width="60" height="30" as="geometry" />
        </mxCell>
        <mxCell id="l5qT5_21L_Z3jOt7tFSg-17" value="1..*" style="text;html=1;strokeColor=none;fillColor=none;align=center;verticalAlign=middle;whiteSpace=wrap;rounded=0;" parent="1" vertex="1">
          <mxGeometry x="730" y="220" width="60" height="30" as="geometry" />
        </mxCell>
        <mxCell id="l5qT5_21L_Z3jOt7tFSg-18" value="1" style="text;html=1;strokeColor=none;fillColor=none;align=center;verticalAlign=middle;whiteSpace=wrap;rounded=0;" parent="1" vertex="1">
          <mxGeometry x="730" y="130" width="60" height="30" as="geometry" />
        </mxCell>
        <mxCell id="l5qT5_21L_Z3jOt7tFSg-19" value="1" style="text;html=1;strokeColor=none;fillColor=none;align=center;verticalAlign=middle;whiteSpace=wrap;rounded=0;" parent="1" vertex="1">
          <mxGeometry x="440" y="130" width="60" height="30" as="geometry" />
        </mxCell>
        <mxCell id="l5qT5_21L_Z3jOt7tFSg-20" value="1" style="text;html=1;strokeColor=none;fillColor=none;align=center;verticalAlign=middle;whiteSpace=wrap;rounded=0;" parent="1" vertex="1">
          <mxGeometry x="440" y="220" width="60" height="30" as="geometry" />
        </mxCell>
        <mxCell id="l5qT5_21L_Z3jOt7tFSg-21" value="+sale officer" style="text;html=1;strokeColor=none;fillColor=none;align=center;verticalAlign=middle;whiteSpace=wrap;rounded=0;" parent="1" vertex="1">
          <mxGeometry x="380" y="390" width="80" height="30" as="geometry" />
        </mxCell>
      </root>
    </mxGraphModel>
  </diagram>
  <diagram id="ZqqHqGKTxwN2S89cpJkW" name="Qns2">
    <mxGraphModel dx="2060" dy="1184" grid="1" gridSize="10" guides="1" tooltips="1" connect="1" arrows="1" fold="1" page="1" pageScale="1" pageWidth="850" pageHeight="1100" math="0" shadow="0">
      <root>
        <mxCell id="0" />
        <mxCell id="1" parent="0" />
        <mxCell id="fjWhygVpfhDcYx7ambGl-1" value="&lt;p style=&quot;margin:0px;margin-top:4px;text-align:center;&quot;&gt;&lt;b&gt;Passenger&lt;/b&gt;&lt;/p&gt;&lt;hr size=&quot;1&quot;&gt;&lt;div style=&quot;height:2px;&quot;&gt;&lt;/div&gt;&lt;hr size=&quot;1&quot;&gt;&lt;div style=&quot;height:2px;&quot;&gt;&lt;/div&gt;" style="verticalAlign=top;align=left;overflow=fill;fontSize=12;fontFamily=Helvetica;html=1;" parent="1" vertex="1">
          <mxGeometry x="110" y="420" width="140" height="60" as="geometry" />
        </mxCell>
        <mxCell id="fjWhygVpfhDcYx7ambGl-2" value="&lt;p style=&quot;margin:0px;margin-top:4px;text-align:center;&quot;&gt;&lt;b&gt;Airport&lt;/b&gt;&lt;/p&gt;&lt;hr size=&quot;1&quot;&gt;&lt;div style=&quot;height:2px;&quot;&gt;&lt;/div&gt;&lt;hr size=&quot;1&quot;&gt;&lt;div style=&quot;height:2px;&quot;&gt;&lt;/div&gt;" style="verticalAlign=top;align=left;overflow=fill;fontSize=12;fontFamily=Helvetica;html=1;" parent="1" vertex="1">
          <mxGeometry x="670" y="80" width="140" height="60" as="geometry" />
        </mxCell>
        <mxCell id="fjWhygVpfhDcYx7ambGl-3" value="&lt;p style=&quot;margin:0px;margin-top:4px;text-align:center;&quot;&gt;&lt;b&gt;City&lt;/b&gt;&lt;/p&gt;&lt;hr size=&quot;1&quot;&gt;&lt;div style=&quot;height:2px;&quot;&gt;&lt;/div&gt;&lt;hr size=&quot;1&quot;&gt;&lt;div style=&quot;height:2px;&quot;&gt;&lt;/div&gt;" style="verticalAlign=top;align=left;overflow=fill;fontSize=12;fontFamily=Helvetica;html=1;" parent="1" vertex="1">
          <mxGeometry x="390" y="80" width="140" height="60" as="geometry" />
        </mxCell>
        <mxCell id="fjWhygVpfhDcYx7ambGl-4" value="&lt;p style=&quot;margin:0px;margin-top:4px;text-align:center;&quot;&gt;&lt;b&gt;Flight&lt;/b&gt;&lt;/p&gt;&lt;hr size=&quot;1&quot;&gt;&lt;div style=&quot;height:2px;&quot;&gt;&lt;/div&gt;&lt;hr size=&quot;1&quot;&gt;&lt;div style=&quot;height:2px;&quot;&gt;&lt;/div&gt;" style="verticalAlign=top;align=left;overflow=fill;fontSize=12;fontFamily=Helvetica;html=1;" parent="1" vertex="1">
          <mxGeometry x="670" y="250" width="140" height="60" as="geometry" />
        </mxCell>
        <mxCell id="fjWhygVpfhDcYx7ambGl-5" value="&lt;p style=&quot;margin:0px;margin-top:4px;text-align:center;&quot;&gt;&lt;b&gt;Agency Staff&lt;/b&gt;&lt;/p&gt;&lt;hr size=&quot;1&quot;&gt;&lt;div style=&quot;height:2px;&quot;&gt;&lt;/div&gt;&lt;hr size=&quot;1&quot;&gt;&lt;div style=&quot;height:2px;&quot;&gt;&lt;/div&gt;" style="verticalAlign=top;align=left;overflow=fill;fontSize=12;fontFamily=Helvetica;html=1;" parent="1" vertex="1">
          <mxGeometry x="390" y="250" width="140" height="60" as="geometry" />
        </mxCell>
        <mxCell id="fjWhygVpfhDcYx7ambGl-6" value="&lt;p style=&quot;margin:0px;margin-top:4px;text-align:center;&quot;&gt;&lt;b&gt;Airline Companies&lt;/b&gt;&lt;/p&gt;&lt;hr size=&quot;1&quot;&gt;&lt;div style=&quot;height:2px;&quot;&gt;&lt;/div&gt;&lt;hr size=&quot;1&quot;&gt;&lt;div style=&quot;height:2px;&quot;&gt;&lt;/div&gt;" style="verticalAlign=top;align=left;overflow=fill;fontSize=12;fontFamily=Helvetica;html=1;" parent="1" vertex="1">
          <mxGeometry x="670" y="420" width="140" height="60" as="geometry" />
        </mxCell>
        <mxCell id="fjWhygVpfhDcYx7ambGl-11" value="Makes" style="endArrow=none;html=1;rounded=0;entryX=0.5;entryY=1;entryDx=0;entryDy=0;exitX=0.5;exitY=0;exitDx=0;exitDy=0;" parent="1" edge="1">
          <mxGeometry width="50" height="50" relative="1" as="geometry">
            <mxPoint x="460" y="430" as="sourcePoint" />
            <mxPoint x="460" y="310" as="targetPoint" />
          </mxGeometry>
        </mxCell>
        <mxCell id="fjWhygVpfhDcYx7ambGl-12" value="Serves" style="endArrow=none;html=1;rounded=0;entryX=0;entryY=0.5;entryDx=0;entryDy=0;exitX=1;exitY=0.5;exitDx=0;exitDy=0;" parent="1" source="fjWhygVpfhDcYx7ambGl-3" target="fjWhygVpfhDcYx7ambGl-2" edge="1">
          <mxGeometry width="50" height="50" relative="1" as="geometry">
            <mxPoint x="750" y="90" as="sourcePoint" />
            <mxPoint x="750" y="-30" as="targetPoint" />
          </mxGeometry>
        </mxCell>
        <mxCell id="fjWhygVpfhDcYx7ambGl-15" value="Offers" style="endArrow=none;html=1;rounded=0;entryX=0.5;entryY=1;entryDx=0;entryDy=0;" parent="1" source="fjWhygVpfhDcYx7ambGl-6" edge="1">
          <mxGeometry width="50" height="50" relative="1" as="geometry">
            <mxPoint x="990" y="260" as="sourcePoint" />
            <mxPoint x="740" y="310" as="targetPoint" />
          </mxGeometry>
        </mxCell>
        <mxCell id="fjWhygVpfhDcYx7ambGl-16" value="1" style="text;html=1;strokeColor=none;fillColor=none;align=center;verticalAlign=middle;whiteSpace=wrap;rounded=0;" parent="1" vertex="1">
          <mxGeometry x="720" y="390" width="60" height="30" as="geometry" />
        </mxCell>
        <mxCell id="fjWhygVpfhDcYx7ambGl-17" value="*" style="text;html=1;strokeColor=none;fillColor=none;align=center;verticalAlign=middle;whiteSpace=wrap;rounded=0;" parent="1" vertex="1">
          <mxGeometry x="720" y="310" width="60" height="30" as="geometry" />
        </mxCell>
        <mxCell id="fjWhygVpfhDcYx7ambGl-18" value="1..*" style="text;html=1;strokeColor=none;fillColor=none;align=center;verticalAlign=middle;whiteSpace=wrap;rounded=0;" parent="1" vertex="1">
          <mxGeometry x="520" y="110" width="60" height="30" as="geometry" />
        </mxCell>
        <mxCell id="fjWhygVpfhDcYx7ambGl-19" value="0..*" style="text;html=1;strokeColor=none;fillColor=none;align=center;verticalAlign=middle;whiteSpace=wrap;rounded=0;" parent="1" vertex="1">
          <mxGeometry x="620" y="110" width="60" height="30" as="geometry" />
        </mxCell>
        <mxCell id="fjWhygVpfhDcYx7ambGl-24" value="1" style="text;html=1;strokeColor=none;fillColor=none;align=center;verticalAlign=middle;whiteSpace=wrap;rounded=0;" parent="1" vertex="1">
          <mxGeometry x="440" y="310" width="60" height="30" as="geometry" />
        </mxCell>
        <mxCell id="fjWhygVpfhDcYx7ambGl-25" value="0..*" style="text;html=1;strokeColor=none;fillColor=none;align=center;verticalAlign=middle;whiteSpace=wrap;rounded=0;" parent="1" vertex="1">
          <mxGeometry x="450" y="390" width="60" height="30" as="geometry" />
        </mxCell>
        <mxCell id="7q0KavNMtzttBxxnKS7A-1" value="&lt;p style=&quot;margin:0px;margin-top:4px;text-align:center;&quot;&gt;&lt;b&gt;Booking&lt;/b&gt;&lt;/p&gt;&lt;hr size=&quot;1&quot;&gt;&lt;div style=&quot;height:2px;&quot;&gt;&lt;/div&gt;&lt;hr size=&quot;1&quot;&gt;&lt;div style=&quot;height:2px;&quot;&gt;&lt;/div&gt;" style="verticalAlign=top;align=left;overflow=fill;fontSize=12;fontFamily=Helvetica;html=1;" parent="1" vertex="1">
          <mxGeometry x="390" y="420" width="140" height="60" as="geometry" />
        </mxCell>
        <mxCell id="7q0KavNMtzttBxxnKS7A-2" value="Opens / Closes" style="endArrow=none;html=1;rounded=0;entryX=0;entryY=0.5;entryDx=0;entryDy=0;exitX=1;exitY=0.5;exitDx=0;exitDy=0;" parent="1" edge="1">
          <mxGeometry width="50" height="50" relative="1" as="geometry">
            <mxPoint x="530" y="450" as="sourcePoint" />
            <mxPoint x="670" y="450" as="targetPoint" />
          </mxGeometry>
        </mxCell>
        <mxCell id="7q0KavNMtzttBxxnKS7A-3" value="1" style="text;html=1;strokeColor=none;fillColor=none;align=center;verticalAlign=middle;whiteSpace=wrap;rounded=0;" parent="1" vertex="1">
          <mxGeometry x="620" y="450" width="60" height="30" as="geometry" />
        </mxCell>
        <mxCell id="7q0KavNMtzttBxxnKS7A-4" value="1..*" style="text;html=1;strokeColor=none;fillColor=none;align=center;verticalAlign=middle;whiteSpace=wrap;rounded=0;" parent="1" vertex="1">
          <mxGeometry x="520" y="450" width="60" height="30" as="geometry" />
        </mxCell>
        <mxCell id="7q0KavNMtzttBxxnKS7A-8" value="Concerns" style="endArrow=none;html=1;rounded=0;entryX=0;entryY=1;entryDx=0;entryDy=0;exitX=1;exitY=0;exitDx=0;exitDy=0;" parent="1" source="7q0KavNMtzttBxxnKS7A-1" target="fjWhygVpfhDcYx7ambGl-4" edge="1">
          <mxGeometry width="50" height="50" relative="1" as="geometry">
            <mxPoint x="470" y="439.9999999999999" as="sourcePoint" />
            <mxPoint x="470" y="320" as="targetPoint" />
          </mxGeometry>
        </mxCell>
        <mxCell id="7q0KavNMtzttBxxnKS7A-9" value="0..*" style="text;html=1;strokeColor=none;fillColor=none;align=center;verticalAlign=middle;whiteSpace=wrap;rounded=0;" parent="1" vertex="1">
          <mxGeometry x="530" y="400" width="60" height="30" as="geometry" />
        </mxCell>
        <mxCell id="7q0KavNMtzttBxxnKS7A-10" value="1" style="text;html=1;strokeColor=none;fillColor=none;align=center;verticalAlign=middle;whiteSpace=wrap;rounded=0;" parent="1" vertex="1">
          <mxGeometry x="640" y="310" width="60" height="30" as="geometry" />
        </mxCell>
        <mxCell id="7q0KavNMtzttBxxnKS7A-11" value="Concerns" style="endArrow=none;html=1;rounded=0;entryX=0;entryY=0.5;entryDx=0;entryDy=0;exitX=1;exitY=0.5;exitDx=0;exitDy=0;" parent="1" edge="1">
          <mxGeometry width="50" height="50" relative="1" as="geometry">
            <mxPoint x="250" y="450" as="sourcePoint" />
            <mxPoint x="390" y="450" as="targetPoint" />
          </mxGeometry>
        </mxCell>
        <mxCell id="7q0KavNMtzttBxxnKS7A-12" value="1" style="text;html=1;strokeColor=none;fillColor=none;align=center;verticalAlign=middle;whiteSpace=wrap;rounded=0;" parent="1" vertex="1">
          <mxGeometry x="240" y="450" width="60" height="30" as="geometry" />
        </mxCell>
        <mxCell id="7q0KavNMtzttBxxnKS7A-13" value="0..*" style="text;html=1;strokeColor=none;fillColor=none;align=center;verticalAlign=middle;whiteSpace=wrap;rounded=0;" parent="1" vertex="1">
          <mxGeometry x="340" y="450" width="60" height="30" as="geometry" />
        </mxCell>
        <mxCell id="7q0KavNMtzttBxxnKS7A-14" value="Involves" style="endArrow=none;html=1;rounded=0;entryX=0.5;entryY=1;entryDx=0;entryDy=0;" parent="1" edge="1">
          <mxGeometry width="50" height="50" relative="1" as="geometry">
            <mxPoint x="740" y="249.9999999999999" as="sourcePoint" />
            <mxPoint x="740" y="140" as="targetPoint" />
          </mxGeometry>
        </mxCell>
        <mxCell id="7q0KavNMtzttBxxnKS7A-15" value="1" style="text;html=1;strokeColor=none;fillColor=none;align=center;verticalAlign=middle;whiteSpace=wrap;rounded=0;" parent="1" vertex="1">
          <mxGeometry x="720" y="220" width="60" height="30" as="geometry" />
        </mxCell>
        <mxCell id="7q0KavNMtzttBxxnKS7A-16" value="*" style="text;html=1;strokeColor=none;fillColor=none;align=center;verticalAlign=middle;whiteSpace=wrap;rounded=0;" parent="1" vertex="1">
          <mxGeometry x="720" y="140" width="60" height="30" as="geometry" />
        </mxCell>
        <mxCell id="J31j7jMMfoq2HHFkyed--1" value="+ Stopover" style="text;html=1;strokeColor=none;fillColor=none;align=center;verticalAlign=middle;whiteSpace=wrap;rounded=0;" parent="1" vertex="1">
          <mxGeometry x="760" y="140" width="80" height="30" as="geometry" />
        </mxCell>
      </root>
    </mxGraphModel>
  </diagram>
  <diagram id="BYeQLQQZK4-xUpiFj-uu" name="Qns2Ans">
    <mxGraphModel dx="2060" dy="1184" grid="1" gridSize="10" guides="1" tooltips="1" connect="1" arrows="1" fold="1" page="1" pageScale="1" pageWidth="850" pageHeight="1100" math="0" shadow="0">
      <root>
        <mxCell id="0" />
        <mxCell id="1" parent="0" />
        <mxCell id="SYf6dUJz6FEwm7b2TYiF-1" value="&lt;p style=&quot;margin:0px;margin-top:4px;text-align:center;&quot;&gt;&lt;b&gt;Passenger&lt;/b&gt;&lt;/p&gt;&lt;hr size=&quot;1&quot;&gt;&lt;div style=&quot;height:2px;&quot;&gt;&lt;/div&gt;&lt;hr size=&quot;1&quot;&gt;&lt;div style=&quot;height:2px;&quot;&gt;&lt;/div&gt;" style="verticalAlign=top;align=left;overflow=fill;fontSize=12;fontFamily=Helvetica;html=1;" parent="1" vertex="1">
          <mxGeometry x="670" y="420" width="140" height="60" as="geometry" />
        </mxCell>
        <mxCell id="SYf6dUJz6FEwm7b2TYiF-2" value="&lt;p style=&quot;margin:0px;margin-top:4px;text-align:center;&quot;&gt;&lt;b&gt;Airport&lt;/b&gt;&lt;/p&gt;&lt;hr size=&quot;1&quot;&gt;&lt;div style=&quot;height:2px;&quot;&gt;&lt;/div&gt;&lt;hr size=&quot;1&quot;&gt;&lt;div style=&quot;height:2px;&quot;&gt;&lt;/div&gt;" style="verticalAlign=top;align=left;overflow=fill;fontSize=12;fontFamily=Helvetica;html=1;" parent="1" vertex="1">
          <mxGeometry x="110" y="250" width="140" height="60" as="geometry" />
        </mxCell>
        <mxCell id="SYf6dUJz6FEwm7b2TYiF-3" value="&lt;p style=&quot;margin:0px;margin-top:4px;text-align:center;&quot;&gt;&lt;b&gt;City&lt;/b&gt;&lt;/p&gt;&lt;hr size=&quot;1&quot;&gt;&lt;div style=&quot;height:2px;&quot;&gt;&lt;/div&gt;&lt;hr size=&quot;1&quot;&gt;&lt;div style=&quot;height:2px;&quot;&gt;&lt;/div&gt;" style="verticalAlign=top;align=left;overflow=fill;fontSize=12;fontFamily=Helvetica;html=1;" parent="1" vertex="1">
          <mxGeometry x="110" y="80" width="140" height="60" as="geometry" />
        </mxCell>
        <mxCell id="SYf6dUJz6FEwm7b2TYiF-4" value="&lt;p style=&quot;margin:0px;margin-top:4px;text-align:center;&quot;&gt;&lt;b&gt;Flight&lt;/b&gt;&lt;/p&gt;&lt;hr size=&quot;1&quot;&gt;+departureDate&lt;br&gt;+departureTime&lt;br&gt;+arrivalDate&lt;br&gt;+arrivalTime&lt;br&gt;&lt;div style=&quot;height:2px;&quot;&gt;&lt;br&gt;&lt;/div&gt;&lt;hr size=&quot;1&quot;&gt;&lt;div style=&quot;height:2px;&quot;&gt;&lt;/div&gt;" style="verticalAlign=top;align=left;overflow=fill;fontSize=12;fontFamily=Helvetica;html=1;" parent="1" vertex="1">
          <mxGeometry x="390" y="250" width="140" height="100" as="geometry" />
        </mxCell>
        <mxCell id="SYf6dUJz6FEwm7b2TYiF-5" value="&lt;p style=&quot;margin:0px;margin-top:4px;text-align:center;&quot;&gt;&lt;b&gt;Agency Staff&lt;/b&gt;&lt;/p&gt;&lt;hr size=&quot;1&quot;&gt;&lt;div style=&quot;height:2px;&quot;&gt;&lt;/div&gt;&lt;hr size=&quot;1&quot;&gt;&lt;div style=&quot;height:2px;&quot;&gt;&lt;/div&gt;" style="verticalAlign=top;align=left;overflow=fill;fontSize=12;fontFamily=Helvetica;html=1;" parent="1" vertex="1">
          <mxGeometry x="670" y="80" width="140" height="60" as="geometry" />
        </mxCell>
        <mxCell id="SYf6dUJz6FEwm7b2TYiF-6" value="&lt;p style=&quot;margin:0px;margin-top:4px;text-align:center;&quot;&gt;&lt;b&gt;Airline Companies&lt;/b&gt;&lt;/p&gt;&lt;hr size=&quot;1&quot;&gt;&lt;div style=&quot;height:2px;&quot;&gt;&lt;/div&gt;&lt;hr size=&quot;1&quot;&gt;&lt;div style=&quot;height:2px;&quot;&gt;&lt;/div&gt;" style="verticalAlign=top;align=left;overflow=fill;fontSize=12;fontFamily=Helvetica;html=1;" parent="1" vertex="1">
          <mxGeometry x="390" y="80" width="140" height="60" as="geometry" />
        </mxCell>
        <mxCell id="SYf6dUJz6FEwm7b2TYiF-7" value="Offers" style="endArrow=none;html=1;rounded=0;entryX=0.5;entryY=1;entryDx=0;entryDy=0;exitX=0.5;exitY=0;exitDx=0;exitDy=0;" parent="1" edge="1">
          <mxGeometry width="50" height="50" relative="1" as="geometry">
            <mxPoint x="460" y="260" as="sourcePoint" />
            <mxPoint x="460" y="140" as="targetPoint" />
          </mxGeometry>
        </mxCell>
        <mxCell id="SYf6dUJz6FEwm7b2TYiF-8" value="Arrive" style="endArrow=none;html=1;rounded=0;entryX=0;entryY=0.5;entryDx=0;entryDy=0;exitX=1;exitY=0.5;exitDx=0;exitDy=0;" parent="1" edge="1">
          <mxGeometry width="50" height="50" relative="1" as="geometry">
            <mxPoint x="250" y="260" as="sourcePoint" />
            <mxPoint x="390" y="260" as="targetPoint" />
          </mxGeometry>
        </mxCell>
        <mxCell id="SYf6dUJz6FEwm7b2TYiF-9" value="Has Made" style="endArrow=none;html=1;rounded=0;entryX=0.5;entryY=1;entryDx=0;entryDy=0;" parent="1" edge="1">
          <mxGeometry width="50" height="50" relative="1" as="geometry">
            <mxPoint x="740" y="250" as="sourcePoint" />
            <mxPoint x="740" y="140" as="targetPoint" />
          </mxGeometry>
        </mxCell>
        <mxCell id="SYf6dUJz6FEwm7b2TYiF-10" value="1..*" style="text;html=1;strokeColor=none;fillColor=none;align=center;verticalAlign=middle;whiteSpace=wrap;rounded=0;" parent="1" vertex="1">
          <mxGeometry x="730" y="220" width="60" height="30" as="geometry" />
        </mxCell>
        <mxCell id="SYf6dUJz6FEwm7b2TYiF-11" value="1" style="text;html=1;strokeColor=none;fillColor=none;align=center;verticalAlign=middle;whiteSpace=wrap;rounded=0;" parent="1" vertex="1">
          <mxGeometry x="720" y="140" width="60" height="30" as="geometry" />
        </mxCell>
        <mxCell id="SYf6dUJz6FEwm7b2TYiF-12" value="1" style="text;html=1;strokeColor=none;fillColor=none;align=center;verticalAlign=middle;whiteSpace=wrap;rounded=0;" parent="1" vertex="1">
          <mxGeometry x="230" y="260" width="60" height="30" as="geometry" />
        </mxCell>
        <mxCell id="SYf6dUJz6FEwm7b2TYiF-13" value="0..*" style="text;html=1;strokeColor=none;fillColor=none;align=center;verticalAlign=middle;whiteSpace=wrap;rounded=0;" parent="1" vertex="1">
          <mxGeometry x="340" y="260" width="60" height="30" as="geometry" />
        </mxCell>
        <mxCell id="SYf6dUJz6FEwm7b2TYiF-14" value="1..*" style="text;html=1;strokeColor=none;fillColor=none;align=center;verticalAlign=middle;whiteSpace=wrap;rounded=0;" parent="1" vertex="1">
          <mxGeometry x="450" y="140" width="60" height="30" as="geometry" />
        </mxCell>
        <mxCell id="SYf6dUJz6FEwm7b2TYiF-15" value="1..*" style="text;html=1;strokeColor=none;fillColor=none;align=center;verticalAlign=middle;whiteSpace=wrap;rounded=0;" parent="1" vertex="1">
          <mxGeometry x="450" y="220" width="60" height="30" as="geometry" />
        </mxCell>
        <mxCell id="SYf6dUJz6FEwm7b2TYiF-16" value="&lt;p style=&quot;margin:0px;margin-top:4px;text-align:center;&quot;&gt;&lt;b&gt;Booking&lt;/b&gt;&lt;/p&gt;&lt;hr size=&quot;1&quot;&gt;&lt;div style=&quot;height:2px;&quot;&gt;&lt;/div&gt;&lt;hr size=&quot;1&quot;&gt;&lt;div style=&quot;height:2px;&quot;&gt;&lt;/div&gt;" style="verticalAlign=top;align=left;overflow=fill;fontSize=12;fontFamily=Helvetica;html=1;" parent="1" vertex="1">
          <mxGeometry x="670" y="250" width="140" height="60" as="geometry" />
        </mxCell>
        <mxCell id="SYf6dUJz6FEwm7b2TYiF-23" value="Concerns" style="endArrow=none;html=1;rounded=0;entryX=0;entryY=0.5;entryDx=0;entryDy=0;exitX=1;exitY=0.5;exitDx=0;exitDy=0;" parent="1" edge="1">
          <mxGeometry width="50" height="50" relative="1" as="geometry">
            <mxPoint x="530" y="280" as="sourcePoint" />
            <mxPoint x="670" y="280" as="targetPoint" />
          </mxGeometry>
        </mxCell>
        <mxCell id="SYf6dUJz6FEwm7b2TYiF-24" value="1" style="text;html=1;strokeColor=none;fillColor=none;align=center;verticalAlign=middle;whiteSpace=wrap;rounded=0;" parent="1" vertex="1">
          <mxGeometry x="510" y="280" width="60" height="30" as="geometry" />
        </mxCell>
        <mxCell id="SYf6dUJz6FEwm7b2TYiF-25" value="0..*" style="text;html=1;strokeColor=none;fillColor=none;align=center;verticalAlign=middle;whiteSpace=wrap;rounded=0;" parent="1" vertex="1">
          <mxGeometry x="620" y="280" width="60" height="30" as="geometry" />
        </mxCell>
        <mxCell id="SYf6dUJz6FEwm7b2TYiF-26" value="Serves" style="endArrow=none;html=1;rounded=0;entryX=0.5;entryY=1;entryDx=0;entryDy=0;" parent="1" edge="1">
          <mxGeometry width="50" height="50" relative="1" as="geometry">
            <mxPoint x="180" y="249.9999999999999" as="sourcePoint" />
            <mxPoint x="180" y="140" as="targetPoint" />
          </mxGeometry>
        </mxCell>
        <mxCell id="SYf6dUJz6FEwm7b2TYiF-27" value="0..*" style="text;html=1;strokeColor=none;fillColor=none;align=center;verticalAlign=middle;whiteSpace=wrap;rounded=0;" parent="1" vertex="1">
          <mxGeometry x="170" y="220" width="60" height="30" as="geometry" />
        </mxCell>
        <mxCell id="SYf6dUJz6FEwm7b2TYiF-28" value="1..*" style="text;html=1;strokeColor=none;fillColor=none;align=center;verticalAlign=middle;whiteSpace=wrap;rounded=0;" parent="1" vertex="1">
          <mxGeometry x="170" y="140" width="60" height="30" as="geometry" />
        </mxCell>
        <mxCell id="znWzVYXbe78NgTvSVyH7-1" value="&lt;p style=&quot;margin:0px;margin-top:4px;text-align:center;&quot;&gt;&lt;b&gt;StopoverInfo&lt;/b&gt;&lt;/p&gt;&lt;hr size=&quot;1&quot;&gt;+arrivalTime&lt;br&gt;+departureTime&lt;br&gt;&lt;div style=&quot;height:2px;&quot;&gt;&lt;/div&gt;&lt;hr size=&quot;1&quot;&gt;&lt;div style=&quot;height:2px;&quot;&gt;&lt;/div&gt;" style="verticalAlign=top;align=left;overflow=fill;fontSize=12;fontFamily=Helvetica;html=1;" parent="1" vertex="1">
          <mxGeometry x="110" y="420" width="140" height="70" as="geometry" />
        </mxCell>
        <mxCell id="znWzVYXbe78NgTvSVyH7-2" value="Depart" style="endArrow=none;html=1;rounded=0;entryX=0;entryY=0.5;entryDx=0;entryDy=0;exitX=1;exitY=0.5;exitDx=0;exitDy=0;" parent="1" edge="1">
          <mxGeometry width="50" height="50" relative="1" as="geometry">
            <mxPoint x="250" y="310" as="sourcePoint" />
            <mxPoint x="390" y="310" as="targetPoint" />
          </mxGeometry>
        </mxCell>
        <mxCell id="znWzVYXbe78NgTvSVyH7-3" value="1" style="text;html=1;strokeColor=none;fillColor=none;align=center;verticalAlign=middle;whiteSpace=wrap;rounded=0;" parent="1" vertex="1">
          <mxGeometry x="230" y="310" width="60" height="30" as="geometry" />
        </mxCell>
        <mxCell id="znWzVYXbe78NgTvSVyH7-4" value="0..*" style="text;html=1;strokeColor=none;fillColor=none;align=center;verticalAlign=middle;whiteSpace=wrap;rounded=0;" parent="1" vertex="1">
          <mxGeometry x="340" y="310" width="60" height="30" as="geometry" />
        </mxCell>
        <mxCell id="znWzVYXbe78NgTvSVyH7-5" value="Make for" style="endArrow=none;html=1;rounded=0;entryX=0.5;entryY=1;entryDx=0;entryDy=0;" parent="1" edge="1">
          <mxGeometry width="50" height="50" relative="1" as="geometry">
            <mxPoint x="740" y="420" as="sourcePoint" />
            <mxPoint x="740" y="310" as="targetPoint" />
          </mxGeometry>
        </mxCell>
        <mxCell id="znWzVYXbe78NgTvSVyH7-6" value="1" style="text;html=1;strokeColor=none;fillColor=none;align=center;verticalAlign=middle;whiteSpace=wrap;rounded=0;" parent="1" vertex="1">
          <mxGeometry x="720" y="390" width="60" height="30" as="geometry" />
        </mxCell>
        <mxCell id="znWzVYXbe78NgTvSVyH7-7" value="0..*" style="text;html=1;strokeColor=none;fillColor=none;align=center;verticalAlign=middle;whiteSpace=wrap;rounded=0;" parent="1" vertex="1">
          <mxGeometry x="730" y="310" width="60" height="30" as="geometry" />
        </mxCell>
        <mxCell id="znWzVYXbe78NgTvSVyH7-10" value="Stopover" style="endArrow=none;html=1;rounded=0;exitX=0.5;exitY=1;exitDx=0;exitDy=0;entryX=0.5;entryY=1;entryDx=0;entryDy=0;" parent="1" source="SYf6dUJz6FEwm7b2TYiF-2" target="SYf6dUJz6FEwm7b2TYiF-4" edge="1">
          <mxGeometry width="50" height="50" relative="1" as="geometry">
            <mxPoint x="570" y="360" as="sourcePoint" />
            <mxPoint x="620" y="310" as="targetPoint" />
            <Array as="points">
              <mxPoint x="180" y="380" />
              <mxPoint x="460" y="380" />
            </Array>
          </mxGeometry>
        </mxCell>
        <mxCell id="znWzVYXbe78NgTvSVyH7-11" value="0..*" style="text;html=1;strokeColor=none;fillColor=none;align=center;verticalAlign=middle;whiteSpace=wrap;rounded=0;" parent="1" vertex="1">
          <mxGeometry x="450" y="350" width="60" height="30" as="geometry" />
        </mxCell>
        <mxCell id="znWzVYXbe78NgTvSVyH7-12" value="0..*" style="text;html=1;strokeColor=none;fillColor=none;align=center;verticalAlign=middle;whiteSpace=wrap;rounded=0;" parent="1" vertex="1">
          <mxGeometry x="130" y="310" width="60" height="30" as="geometry" />
        </mxCell>
        <mxCell id="znWzVYXbe78NgTvSVyH7-14" value="" style="endArrow=none;dashed=1;html=1;rounded=0;exitX=0.5;exitY=0;exitDx=0;exitDy=0;" parent="1" source="znWzVYXbe78NgTvSVyH7-1" edge="1">
          <mxGeometry width="50" height="50" relative="1" as="geometry">
            <mxPoint x="570" y="360" as="sourcePoint" />
            <mxPoint x="280" y="380" as="targetPoint" />
          </mxGeometry>
        </mxCell>
      </root>
    </mxGraphModel>
  </diagram>
  <diagram id="tmJlc8ZWjtyu9sECwaxn" name="Qns3">
    <mxGraphModel dx="1373" dy="789" grid="1" gridSize="10" guides="1" tooltips="1" connect="1" arrows="1" fold="1" page="1" pageScale="1" pageWidth="850" pageHeight="1100" math="0" shadow="0">
      <root>
        <mxCell id="0" />
        <mxCell id="1" parent="0" />
        <mxCell id="q8G6dyi824pjiNcx_xgM-100" value="&lt;p style=&quot;margin:0px;margin-top:4px;text-align:center;&quot;&gt;&lt;b&gt;Library Material&lt;/b&gt;&lt;/p&gt;&lt;hr size=&quot;1&quot;&gt;+ID&lt;br&gt;+Title&lt;br&gt;+CopyNo&lt;br&gt;&lt;div style=&quot;height:2px;&quot;&gt;&lt;/div&gt;&lt;hr size=&quot;1&quot;&gt;&lt;div style=&quot;height:2px;&quot;&gt;&lt;/div&gt;" style="verticalAlign=top;align=left;overflow=fill;fontSize=12;fontFamily=Helvetica;html=1;" vertex="1" parent="1">
          <mxGeometry x="355" y="550" width="140" height="100" as="geometry" />
        </mxCell>
        <mxCell id="q8G6dyi824pjiNcx_xgM-101" value="&lt;p style=&quot;margin:0px;margin-top:4px;text-align:center;&quot;&gt;&lt;b&gt;Videos&lt;/b&gt;&lt;/p&gt;&lt;hr size=&quot;1&quot;&gt;&lt;div style=&quot;height:2px;&quot;&gt;&lt;/div&gt;&lt;hr size=&quot;1&quot;&gt;&lt;div style=&quot;height:2px;&quot;&gt;&lt;/div&gt;" style="verticalAlign=top;align=left;overflow=fill;fontSize=12;fontFamily=Helvetica;html=1;" vertex="1" parent="1">
          <mxGeometry x="355" y="390" width="140" height="60" as="geometry" />
        </mxCell>
        <mxCell id="q8G6dyi824pjiNcx_xgM-102" value="&lt;p style=&quot;margin:0px;margin-top:4px;text-align:center;&quot;&gt;&lt;b&gt;CDs&lt;/b&gt;&lt;/p&gt;&lt;hr size=&quot;1&quot;&gt;&lt;div style=&quot;height:2px;&quot;&gt;&lt;/div&gt;&lt;hr size=&quot;1&quot;&gt;&lt;div style=&quot;height:2px;&quot;&gt;&lt;/div&gt;" style="verticalAlign=top;align=left;overflow=fill;fontSize=12;fontFamily=Helvetica;html=1;" vertex="1" parent="1">
          <mxGeometry x="570" y="390" width="140" height="60" as="geometry" />
        </mxCell>
        <mxCell id="q8G6dyi824pjiNcx_xgM-103" value="&lt;p style=&quot;margin:0px;margin-top:4px;text-align:center;&quot;&gt;&lt;b&gt;Books&lt;/b&gt;&lt;/p&gt;&lt;hr size=&quot;1&quot;&gt;&lt;div style=&quot;height:2px;&quot;&gt;&lt;/div&gt;&lt;hr size=&quot;1&quot;&gt;&lt;div style=&quot;height:2px;&quot;&gt;&lt;/div&gt;" style="verticalAlign=top;align=left;overflow=fill;fontSize=12;fontFamily=Helvetica;html=1;" vertex="1" parent="1">
          <mxGeometry x="140" y="390" width="140" height="60" as="geometry" />
        </mxCell>
        <mxCell id="U4cwXLKWh0I6zhMBIjZ9-1" value="" style="endArrow=block;endSize=16;endFill=0;html=1;rounded=0;exitX=0.5;exitY=1;exitDx=0;exitDy=0;entryX=0;entryY=0;entryDx=0;entryDy=0;" edge="1" parent="1" source="q8G6dyi824pjiNcx_xgM-103" target="q8G6dyi824pjiNcx_xgM-100">
          <mxGeometry width="160" relative="1" as="geometry">
            <mxPoint x="95" y="640" as="sourcePoint" />
            <mxPoint x="145" y="530" as="targetPoint" />
          </mxGeometry>
        </mxCell>
        <mxCell id="U4cwXLKWh0I6zhMBIjZ9-2" value="" style="endArrow=block;endSize=16;endFill=0;html=1;rounded=0;exitX=0.5;exitY=1;exitDx=0;exitDy=0;entryX=0.5;entryY=0;entryDx=0;entryDy=0;" edge="1" parent="1" source="q8G6dyi824pjiNcx_xgM-101" target="q8G6dyi824pjiNcx_xgM-100">
          <mxGeometry width="160" relative="1" as="geometry">
            <mxPoint x="220" y="460" as="sourcePoint" />
            <mxPoint x="365" y="520" as="targetPoint" />
          </mxGeometry>
        </mxCell>
        <mxCell id="U4cwXLKWh0I6zhMBIjZ9-3" value="" style="endArrow=block;endSize=16;endFill=0;html=1;rounded=0;exitX=0.5;exitY=1;exitDx=0;exitDy=0;entryX=1;entryY=0;entryDx=0;entryDy=0;" edge="1" parent="1" source="q8G6dyi824pjiNcx_xgM-102" target="q8G6dyi824pjiNcx_xgM-100">
          <mxGeometry width="160" relative="1" as="geometry">
            <mxPoint x="435" y="460" as="sourcePoint" />
            <mxPoint x="435" y="520" as="targetPoint" />
          </mxGeometry>
        </mxCell>
        <mxCell id="cXkNwRFCz1WWjjqe7dbA-1" value="&lt;p style=&quot;margin:0px;margin-top:4px;text-align:center;&quot;&gt;&lt;b&gt;Person&lt;/b&gt;&lt;/p&gt;&lt;hr size=&quot;1&quot;&gt;&lt;div style=&quot;height:2px;&quot;&gt;&lt;/div&gt;&lt;hr size=&quot;1&quot;&gt;&lt;div style=&quot;height:2px;&quot;&gt;&lt;/div&gt;" style="verticalAlign=top;align=left;overflow=fill;fontSize=12;fontFamily=Helvetica;html=1;" vertex="1" parent="1">
          <mxGeometry x="355" y="240" width="140" height="60" as="geometry" />
        </mxCell>
        <mxCell id="cXkNwRFCz1WWjjqe7dbA-2" value="Has" style="endArrow=none;html=1;rounded=0;entryX=0;entryY=1;entryDx=0;entryDy=0;exitX=0.5;exitY=0;exitDx=0;exitDy=0;" edge="1" parent="1" source="q8G6dyi824pjiNcx_xgM-103" target="cXkNwRFCz1WWjjqe7dbA-1">
          <mxGeometry width="50" height="50" relative="1" as="geometry">
            <mxPoint x="290" y="410" as="sourcePoint" />
            <mxPoint x="290" y="300" as="targetPoint" />
          </mxGeometry>
        </mxCell>
        <mxCell id="QBz-eSNx3yUDr_65GOUE-1" value="+Author" style="text;html=1;strokeColor=none;fillColor=none;align=center;verticalAlign=middle;whiteSpace=wrap;rounded=0;" vertex="1" parent="1">
          <mxGeometry x="220" y="370" width="80" height="30" as="geometry" />
        </mxCell>
        <mxCell id="mXTVWeLwfD7XBNKMBrZn-1" value="has" style="endArrow=none;html=1;rounded=0;entryX=0.75;entryY=1;entryDx=0;entryDy=0;exitX=0.75;exitY=0;exitDx=0;exitDy=0;" edge="1" parent="1" source="q8G6dyi824pjiNcx_xgM-101" target="cXkNwRFCz1WWjjqe7dbA-1">
          <mxGeometry width="50" height="50" relative="1" as="geometry">
            <mxPoint x="220" y="400" as="sourcePoint" />
            <mxPoint x="365" y="310" as="targetPoint" />
          </mxGeometry>
        </mxCell>
        <mxCell id="mXTVWeLwfD7XBNKMBrZn-2" value="has" style="endArrow=none;html=1;rounded=0;entryX=1;entryY=1;entryDx=0;entryDy=0;exitX=0.5;exitY=0;exitDx=0;exitDy=0;" edge="1" parent="1" source="q8G6dyi824pjiNcx_xgM-102" target="cXkNwRFCz1WWjjqe7dbA-1">
          <mxGeometry width="50" height="50" relative="1" as="geometry">
            <mxPoint x="435" y="400" as="sourcePoint" />
            <mxPoint x="435" y="310" as="targetPoint" />
          </mxGeometry>
        </mxCell>
        <mxCell id="mXTVWeLwfD7XBNKMBrZn-3" value="+Actor" style="text;html=1;strokeColor=none;fillColor=none;align=center;verticalAlign=middle;whiteSpace=wrap;rounded=0;" vertex="1" parent="1">
          <mxGeometry x="440" y="370" width="80" height="30" as="geometry" />
        </mxCell>
        <mxCell id="mXTVWeLwfD7XBNKMBrZn-4" value="+Producer" style="text;html=1;strokeColor=none;fillColor=none;align=center;verticalAlign=middle;whiteSpace=wrap;rounded=0;" vertex="1" parent="1">
          <mxGeometry x="320" y="370" width="80" height="30" as="geometry" />
        </mxCell>
        <mxCell id="mXTVWeLwfD7XBNKMBrZn-5" value="has" style="endArrow=none;html=1;rounded=0;entryX=0.25;entryY=1;entryDx=0;entryDy=0;exitX=0.25;exitY=0;exitDx=0;exitDy=0;" edge="1" parent="1" source="q8G6dyi824pjiNcx_xgM-101" target="cXkNwRFCz1WWjjqe7dbA-1">
          <mxGeometry width="50" height="50" relative="1" as="geometry">
            <mxPoint x="440" y="360" as="sourcePoint" />
            <mxPoint x="435" y="310" as="targetPoint" />
          </mxGeometry>
        </mxCell>
        <mxCell id="mXTVWeLwfD7XBNKMBrZn-6" value="+Entertainer" style="text;html=1;strokeColor=none;fillColor=none;align=center;verticalAlign=middle;whiteSpace=wrap;rounded=0;" vertex="1" parent="1">
          <mxGeometry x="630" y="370" width="80" height="30" as="geometry" />
        </mxCell>
        <mxCell id="mXTVWeLwfD7XBNKMBrZn-7" value="1..*" style="text;html=1;strokeColor=none;fillColor=none;align=center;verticalAlign=middle;whiteSpace=wrap;rounded=0;" vertex="1" parent="1">
          <mxGeometry x="310" y="280" width="60" height="30" as="geometry" />
        </mxCell>
        <mxCell id="mXTVWeLwfD7XBNKMBrZn-8" value="1..*" style="text;html=1;strokeColor=none;fillColor=none;align=center;verticalAlign=middle;whiteSpace=wrap;rounded=0;" vertex="1" parent="1">
          <mxGeometry x="170" y="370" width="60" height="30" as="geometry" />
        </mxCell>
        <mxCell id="mXTVWeLwfD7XBNKMBrZn-9" value="1" style="text;html=1;strokeColor=none;fillColor=none;align=center;verticalAlign=middle;whiteSpace=wrap;rounded=0;" vertex="1" parent="1">
          <mxGeometry x="370" y="290" width="60" height="30" as="geometry" />
        </mxCell>
        <mxCell id="mXTVWeLwfD7XBNKMBrZn-10" value="1..*" style="text;html=1;strokeColor=none;fillColor=none;align=center;verticalAlign=middle;whiteSpace=wrap;rounded=0;" vertex="1" parent="1">
          <mxGeometry x="370" y="370" width="60" height="30" as="geometry" />
        </mxCell>
        <mxCell id="mXTVWeLwfD7XBNKMBrZn-11" value="1..*" style="text;html=1;strokeColor=none;fillColor=none;align=center;verticalAlign=middle;whiteSpace=wrap;rounded=0;" vertex="1" parent="1">
          <mxGeometry x="420" y="370" width="60" height="30" as="geometry" />
        </mxCell>
        <mxCell id="mXTVWeLwfD7XBNKMBrZn-12" value="1..*" style="text;html=1;strokeColor=none;fillColor=none;align=center;verticalAlign=middle;whiteSpace=wrap;rounded=0;" vertex="1" parent="1">
          <mxGeometry x="420" y="290" width="60" height="30" as="geometry" />
        </mxCell>
        <mxCell id="mXTVWeLwfD7XBNKMBrZn-13" value="1..*" style="text;html=1;strokeColor=none;fillColor=none;align=center;verticalAlign=middle;whiteSpace=wrap;rounded=0;" vertex="1" parent="1">
          <mxGeometry x="480" y="280" width="60" height="30" as="geometry" />
        </mxCell>
        <mxCell id="mXTVWeLwfD7XBNKMBrZn-14" value="1..*" style="text;html=1;strokeColor=none;fillColor=none;align=center;verticalAlign=middle;whiteSpace=wrap;rounded=0;" vertex="1" parent="1">
          <mxGeometry x="580" y="370" width="60" height="30" as="geometry" />
        </mxCell>
        <mxCell id="mXTVWeLwfD7XBNKMBrZn-17" value="&lt;p style=&quot;margin:0px;margin-top:4px;text-align:center;&quot;&gt;&lt;b&gt;User&lt;/b&gt;&lt;/p&gt;&lt;hr size=&quot;1&quot;&gt;+Name&lt;br&gt;+Address&lt;br&gt;+PhoneNo&lt;br&gt;&lt;div style=&quot;height:2px;&quot;&gt;&lt;/div&gt;&lt;hr size=&quot;1&quot;&gt;&lt;div style=&quot;height:2px;&quot;&gt;&lt;/div&gt;" style="verticalAlign=top;align=left;overflow=fill;fontSize=12;fontFamily=Helvetica;html=1;" vertex="1" parent="1">
          <mxGeometry x="355" y="740" width="140" height="90" as="geometry" />
        </mxCell>
        <mxCell id="mXTVWeLwfD7XBNKMBrZn-18" value="Loaned" style="endArrow=none;html=1;rounded=0;entryX=0.5;entryY=1;entryDx=0;entryDy=0;exitX=0.5;exitY=0;exitDx=0;exitDy=0;" edge="1" parent="1" source="mXTVWeLwfD7XBNKMBrZn-17" target="q8G6dyi824pjiNcx_xgM-100">
          <mxGeometry width="50" height="50" relative="1" as="geometry">
            <mxPoint x="425" y="740" as="sourcePoint" />
            <mxPoint x="425" y="650" as="targetPoint" />
          </mxGeometry>
        </mxCell>
        <mxCell id="mXTVWeLwfD7XBNKMBrZn-19" value="" style="endArrow=none;dashed=1;html=1;rounded=0;entryX=0;entryY=0.5;entryDx=0;entryDy=0;" edge="1" parent="1" target="mXTVWeLwfD7XBNKMBrZn-20">
          <mxGeometry width="50" height="50" relative="1" as="geometry">
            <mxPoint x="450" y="694" as="sourcePoint" />
            <mxPoint x="610" y="694" as="targetPoint" />
          </mxGeometry>
        </mxCell>
        <mxCell id="mXTVWeLwfD7XBNKMBrZn-20" value="&lt;p style=&quot;margin:0px;margin-top:4px;text-align:center;&quot;&gt;&lt;b&gt;LoanInfo&lt;/b&gt;&lt;/p&gt;&lt;hr size=&quot;1&quot;&gt;+User&lt;br&gt;+LoanDate&lt;br&gt;+LoanTime&lt;br&gt;+ReturnDate&lt;br&gt;+ReturnTime&lt;br&gt;&lt;div style=&quot;height:2px;&quot;&gt;&lt;/div&gt;&lt;hr size=&quot;1&quot;&gt;&lt;div style=&quot;height:2px;&quot;&gt;&lt;/div&gt;" style="verticalAlign=top;align=left;overflow=fill;fontSize=12;fontFamily=Helvetica;html=1;" vertex="1" parent="1">
          <mxGeometry x="620" y="633" width="140" height="120" as="geometry" />
        </mxCell>
        <mxCell id="UY6pRtr0RV2FMdAYXfXg-1" value="+Reference" style="text;html=1;strokeColor=none;fillColor=none;align=center;verticalAlign=middle;whiteSpace=wrap;rounded=0;" vertex="1" parent="1">
          <mxGeometry x="430" y="640" width="80" height="30" as="geometry" />
        </mxCell>
      </root>
    </mxGraphModel>
  </diagram>
  <diagram id="-T64cyNLbOX7UDqVKzU0" name="Qns4">
    <mxGraphModel dx="1373" dy="789" grid="1" gridSize="10" guides="1" tooltips="1" connect="1" arrows="1" fold="1" page="1" pageScale="1" pageWidth="850" pageHeight="1100" math="0" shadow="0">
      <root>
        <mxCell id="0" />
        <mxCell id="1" parent="0" />
        <mxCell id="QJ8W5nGV34yjtfyBnI5k-1" value="&lt;p style=&quot;margin:0px;margin-top:4px;text-align:center;&quot;&gt;&lt;b&gt;Passenger&lt;/b&gt;&lt;/p&gt;&lt;hr size=&quot;1&quot;&gt;&lt;div style=&quot;height:2px;&quot;&gt;&lt;/div&gt;&lt;hr size=&quot;1&quot;&gt;&lt;div style=&quot;height:2px;&quot;&gt;&lt;/div&gt;" style="verticalAlign=top;align=left;overflow=fill;fontSize=12;fontFamily=Helvetica;html=1;" vertex="1" parent="1">
          <mxGeometry x="660" y="1150" width="140" height="60" as="geometry" />
        </mxCell>
        <mxCell id="QJ8W5nGV34yjtfyBnI5k-2" value="&lt;p style=&quot;margin:0px;margin-top:4px;text-align:center;&quot;&gt;&lt;b&gt;Airport&lt;/b&gt;&lt;/p&gt;&lt;hr size=&quot;1&quot;&gt;&lt;div style=&quot;height:2px;&quot;&gt;&lt;/div&gt;&lt;hr size=&quot;1&quot;&gt;&lt;div style=&quot;height:2px;&quot;&gt;&lt;/div&gt;" style="verticalAlign=top;align=left;overflow=fill;fontSize=12;fontFamily=Helvetica;html=1;" vertex="1" parent="1">
          <mxGeometry x="100" y="980" width="140" height="60" as="geometry" />
        </mxCell>
        <mxCell id="QJ8W5nGV34yjtfyBnI5k-3" value="&lt;p style=&quot;margin:0px;margin-top:4px;text-align:center;&quot;&gt;&lt;b&gt;City&lt;/b&gt;&lt;/p&gt;&lt;hr size=&quot;1&quot;&gt;&lt;div style=&quot;height:2px;&quot;&gt;&lt;/div&gt;&lt;hr size=&quot;1&quot;&gt;&lt;div style=&quot;height:2px;&quot;&gt;&lt;/div&gt;" style="verticalAlign=top;align=left;overflow=fill;fontSize=12;fontFamily=Helvetica;html=1;" vertex="1" parent="1">
          <mxGeometry x="100" y="810" width="140" height="60" as="geometry" />
        </mxCell>
        <mxCell id="QJ8W5nGV34yjtfyBnI5k-4" value="&lt;p style=&quot;margin:0px;margin-top:4px;text-align:center;&quot;&gt;&lt;b&gt;Flight&lt;/b&gt;&lt;/p&gt;&lt;hr size=&quot;1&quot;&gt;+departureDate&lt;br&gt;+departureTime&lt;br&gt;+arrivalDate&lt;br&gt;+arrivalTime&lt;br&gt;&lt;div style=&quot;height:2px;&quot;&gt;&lt;br&gt;&lt;/div&gt;&lt;hr size=&quot;1&quot;&gt;&lt;div style=&quot;height:2px;&quot;&gt;&lt;/div&gt;" style="verticalAlign=top;align=left;overflow=fill;fontSize=12;fontFamily=Helvetica;html=1;" vertex="1" parent="1">
          <mxGeometry x="380" y="980" width="140" height="100" as="geometry" />
        </mxCell>
        <mxCell id="QJ8W5nGV34yjtfyBnI5k-5" value="&lt;p style=&quot;margin:0px;margin-top:4px;text-align:center;&quot;&gt;&lt;b&gt;Agency Staff&lt;/b&gt;&lt;/p&gt;&lt;hr size=&quot;1&quot;&gt;&lt;div style=&quot;height:2px;&quot;&gt;&lt;/div&gt;&lt;hr size=&quot;1&quot;&gt;&lt;div style=&quot;height:2px;&quot;&gt;&lt;/div&gt;" style="verticalAlign=top;align=left;overflow=fill;fontSize=12;fontFamily=Helvetica;html=1;" vertex="1" parent="1">
          <mxGeometry x="660" y="810" width="140" height="60" as="geometry" />
        </mxCell>
        <mxCell id="QJ8W5nGV34yjtfyBnI5k-6" value="&lt;p style=&quot;margin:0px;margin-top:4px;text-align:center;&quot;&gt;&lt;b&gt;Airline Companies&lt;/b&gt;&lt;/p&gt;&lt;hr size=&quot;1&quot;&gt;&lt;div style=&quot;height:2px;&quot;&gt;&lt;/div&gt;&lt;hr size=&quot;1&quot;&gt;&lt;div style=&quot;height:2px;&quot;&gt;&lt;/div&gt;" style="verticalAlign=top;align=left;overflow=fill;fontSize=12;fontFamily=Helvetica;html=1;" vertex="1" parent="1">
          <mxGeometry x="380" y="810" width="140" height="60" as="geometry" />
        </mxCell>
        <mxCell id="QJ8W5nGV34yjtfyBnI5k-7" value="Offers" style="endArrow=none;html=1;rounded=0;entryX=0.5;entryY=1;entryDx=0;entryDy=0;exitX=0.5;exitY=0;exitDx=0;exitDy=0;" edge="1" parent="1">
          <mxGeometry width="50" height="50" relative="1" as="geometry">
            <mxPoint x="450" y="990" as="sourcePoint" />
            <mxPoint x="450" y="870" as="targetPoint" />
          </mxGeometry>
        </mxCell>
        <mxCell id="QJ8W5nGV34yjtfyBnI5k-8" value="Arrive" style="endArrow=none;html=1;rounded=0;entryX=0;entryY=0.5;entryDx=0;entryDy=0;exitX=1;exitY=0.5;exitDx=0;exitDy=0;" edge="1" parent="1">
          <mxGeometry width="50" height="50" relative="1" as="geometry">
            <mxPoint x="240" y="990" as="sourcePoint" />
            <mxPoint x="380" y="990" as="targetPoint" />
          </mxGeometry>
        </mxCell>
        <mxCell id="QJ8W5nGV34yjtfyBnI5k-9" value="Has Made" style="endArrow=none;html=1;rounded=0;entryX=0.5;entryY=1;entryDx=0;entryDy=0;" edge="1" parent="1">
          <mxGeometry width="50" height="50" relative="1" as="geometry">
            <mxPoint x="730" y="980" as="sourcePoint" />
            <mxPoint x="730" y="870" as="targetPoint" />
          </mxGeometry>
        </mxCell>
        <mxCell id="QJ8W5nGV34yjtfyBnI5k-10" value="1..*" style="text;html=1;strokeColor=none;fillColor=none;align=center;verticalAlign=middle;whiteSpace=wrap;rounded=0;" vertex="1" parent="1">
          <mxGeometry x="720" y="950" width="60" height="30" as="geometry" />
        </mxCell>
        <mxCell id="QJ8W5nGV34yjtfyBnI5k-11" value="1" style="text;html=1;strokeColor=none;fillColor=none;align=center;verticalAlign=middle;whiteSpace=wrap;rounded=0;" vertex="1" parent="1">
          <mxGeometry x="710" y="870" width="60" height="30" as="geometry" />
        </mxCell>
        <mxCell id="QJ8W5nGV34yjtfyBnI5k-12" value="1" style="text;html=1;strokeColor=none;fillColor=none;align=center;verticalAlign=middle;whiteSpace=wrap;rounded=0;" vertex="1" parent="1">
          <mxGeometry x="220" y="990" width="60" height="30" as="geometry" />
        </mxCell>
        <mxCell id="QJ8W5nGV34yjtfyBnI5k-13" value="0..*" style="text;html=1;strokeColor=none;fillColor=none;align=center;verticalAlign=middle;whiteSpace=wrap;rounded=0;" vertex="1" parent="1">
          <mxGeometry x="330" y="990" width="60" height="30" as="geometry" />
        </mxCell>
        <mxCell id="QJ8W5nGV34yjtfyBnI5k-14" value="1..*" style="text;html=1;strokeColor=none;fillColor=none;align=center;verticalAlign=middle;whiteSpace=wrap;rounded=0;" vertex="1" parent="1">
          <mxGeometry x="440" y="870" width="60" height="30" as="geometry" />
        </mxCell>
        <mxCell id="QJ8W5nGV34yjtfyBnI5k-15" value="1..*" style="text;html=1;strokeColor=none;fillColor=none;align=center;verticalAlign=middle;whiteSpace=wrap;rounded=0;" vertex="1" parent="1">
          <mxGeometry x="440" y="950" width="60" height="30" as="geometry" />
        </mxCell>
        <mxCell id="QJ8W5nGV34yjtfyBnI5k-16" value="&lt;p style=&quot;margin:0px;margin-top:4px;text-align:center;&quot;&gt;&lt;b&gt;Booking&lt;/b&gt;&lt;/p&gt;&lt;hr size=&quot;1&quot;&gt;&lt;div style=&quot;height:2px;&quot;&gt;&lt;/div&gt;&lt;hr size=&quot;1&quot;&gt;&lt;div style=&quot;height:2px;&quot;&gt;&lt;/div&gt;" style="verticalAlign=top;align=left;overflow=fill;fontSize=12;fontFamily=Helvetica;html=1;" vertex="1" parent="1">
          <mxGeometry x="660" y="980" width="140" height="60" as="geometry" />
        </mxCell>
        <mxCell id="QJ8W5nGV34yjtfyBnI5k-17" value="Concerns" style="endArrow=none;html=1;rounded=0;entryX=0;entryY=0.5;entryDx=0;entryDy=0;exitX=1;exitY=0.5;exitDx=0;exitDy=0;" edge="1" parent="1">
          <mxGeometry width="50" height="50" relative="1" as="geometry">
            <mxPoint x="520" y="1010" as="sourcePoint" />
            <mxPoint x="660" y="1010" as="targetPoint" />
          </mxGeometry>
        </mxCell>
        <mxCell id="QJ8W5nGV34yjtfyBnI5k-18" value="1" style="text;html=1;strokeColor=none;fillColor=none;align=center;verticalAlign=middle;whiteSpace=wrap;rounded=0;" vertex="1" parent="1">
          <mxGeometry x="500" y="1010" width="60" height="30" as="geometry" />
        </mxCell>
        <mxCell id="QJ8W5nGV34yjtfyBnI5k-19" value="0..*" style="text;html=1;strokeColor=none;fillColor=none;align=center;verticalAlign=middle;whiteSpace=wrap;rounded=0;" vertex="1" parent="1">
          <mxGeometry x="610" y="1010" width="60" height="30" as="geometry" />
        </mxCell>
        <mxCell id="QJ8W5nGV34yjtfyBnI5k-20" value="Assigned" style="endArrow=none;html=1;rounded=0;entryX=0;entryY=1;entryDx=0;entryDy=0;exitX=0;exitY=0;exitDx=0;exitDy=0;" edge="1" parent="1" source="QJ8W5nGV34yjtfyBnI5k-35" target="QJ8W5nGV34yjtfyBnI5k-34">
          <mxGeometry width="50" height="50" relative="1" as="geometry">
            <mxPoint x="10" y="380" as="sourcePoint" />
            <mxPoint x="10" y="270" as="targetPoint" />
          </mxGeometry>
        </mxCell>
        <mxCell id="QJ8W5nGV34yjtfyBnI5k-21" value="1" style="text;html=1;strokeColor=none;fillColor=none;align=center;verticalAlign=middle;whiteSpace=wrap;rounded=0;" vertex="1" parent="1">
          <mxGeometry x="110" y="230" width="60" height="30" as="geometry" />
        </mxCell>
        <mxCell id="QJ8W5nGV34yjtfyBnI5k-22" value="1..*" style="text;html=1;strokeColor=none;fillColor=none;align=center;verticalAlign=middle;whiteSpace=wrap;rounded=0;" vertex="1" parent="1">
          <mxGeometry x="120" y="290" width="60" height="30" as="geometry" />
        </mxCell>
        <mxCell id="QJ8W5nGV34yjtfyBnI5k-23" value="&lt;p style=&quot;margin:0px;margin-top:4px;text-align:center;&quot;&gt;&lt;b&gt;StopoverInfo&lt;/b&gt;&lt;/p&gt;&lt;hr size=&quot;1&quot;&gt;+arrivalTime&lt;br&gt;+departureTime&lt;br&gt;&lt;div style=&quot;height:2px;&quot;&gt;&lt;/div&gt;&lt;hr size=&quot;1&quot;&gt;&lt;div style=&quot;height:2px;&quot;&gt;&lt;/div&gt;" style="verticalAlign=top;align=left;overflow=fill;fontSize=12;fontFamily=Helvetica;html=1;" vertex="1" parent="1">
          <mxGeometry x="100" y="1150" width="140" height="70" as="geometry" />
        </mxCell>
        <mxCell id="QJ8W5nGV34yjtfyBnI5k-24" value="Depart" style="endArrow=none;html=1;rounded=0;entryX=0;entryY=0.5;entryDx=0;entryDy=0;exitX=1;exitY=0.5;exitDx=0;exitDy=0;" edge="1" parent="1">
          <mxGeometry width="50" height="50" relative="1" as="geometry">
            <mxPoint x="240" y="1040" as="sourcePoint" />
            <mxPoint x="380" y="1040" as="targetPoint" />
          </mxGeometry>
        </mxCell>
        <mxCell id="QJ8W5nGV34yjtfyBnI5k-25" value="1" style="text;html=1;strokeColor=none;fillColor=none;align=center;verticalAlign=middle;whiteSpace=wrap;rounded=0;" vertex="1" parent="1">
          <mxGeometry x="220" y="1040" width="60" height="30" as="geometry" />
        </mxCell>
        <mxCell id="QJ8W5nGV34yjtfyBnI5k-26" value="0..*" style="text;html=1;strokeColor=none;fillColor=none;align=center;verticalAlign=middle;whiteSpace=wrap;rounded=0;" vertex="1" parent="1">
          <mxGeometry x="330" y="1040" width="60" height="30" as="geometry" />
        </mxCell>
        <mxCell id="QJ8W5nGV34yjtfyBnI5k-27" value="Make for" style="endArrow=none;html=1;rounded=0;entryX=0.5;entryY=1;entryDx=0;entryDy=0;" edge="1" parent="1">
          <mxGeometry width="50" height="50" relative="1" as="geometry">
            <mxPoint x="730" y="1150" as="sourcePoint" />
            <mxPoint x="730" y="1040" as="targetPoint" />
          </mxGeometry>
        </mxCell>
        <mxCell id="QJ8W5nGV34yjtfyBnI5k-28" value="1" style="text;html=1;strokeColor=none;fillColor=none;align=center;verticalAlign=middle;whiteSpace=wrap;rounded=0;" vertex="1" parent="1">
          <mxGeometry x="710" y="1120" width="60" height="30" as="geometry" />
        </mxCell>
        <mxCell id="QJ8W5nGV34yjtfyBnI5k-29" value="0..*" style="text;html=1;strokeColor=none;fillColor=none;align=center;verticalAlign=middle;whiteSpace=wrap;rounded=0;" vertex="1" parent="1">
          <mxGeometry x="720" y="1040" width="60" height="30" as="geometry" />
        </mxCell>
        <mxCell id="QJ8W5nGV34yjtfyBnI5k-30" value="Stopover" style="endArrow=none;html=1;rounded=0;exitX=0.5;exitY=1;exitDx=0;exitDy=0;entryX=0.5;entryY=1;entryDx=0;entryDy=0;" edge="1" parent="1" source="QJ8W5nGV34yjtfyBnI5k-2" target="QJ8W5nGV34yjtfyBnI5k-4">
          <mxGeometry width="50" height="50" relative="1" as="geometry">
            <mxPoint x="560" y="1090" as="sourcePoint" />
            <mxPoint x="610" y="1040" as="targetPoint" />
            <Array as="points">
              <mxPoint x="170" y="1110" />
              <mxPoint x="450" y="1110" />
            </Array>
          </mxGeometry>
        </mxCell>
        <mxCell id="QJ8W5nGV34yjtfyBnI5k-31" value="0..*" style="text;html=1;strokeColor=none;fillColor=none;align=center;verticalAlign=middle;whiteSpace=wrap;rounded=0;" vertex="1" parent="1">
          <mxGeometry x="440" y="1080" width="60" height="30" as="geometry" />
        </mxCell>
        <mxCell id="QJ8W5nGV34yjtfyBnI5k-32" value="0..*" style="text;html=1;strokeColor=none;fillColor=none;align=center;verticalAlign=middle;whiteSpace=wrap;rounded=0;" vertex="1" parent="1">
          <mxGeometry x="120" y="1040" width="60" height="30" as="geometry" />
        </mxCell>
        <mxCell id="QJ8W5nGV34yjtfyBnI5k-33" value="" style="endArrow=none;dashed=1;html=1;rounded=0;exitX=0.5;exitY=0;exitDx=0;exitDy=0;" edge="1" parent="1" source="QJ8W5nGV34yjtfyBnI5k-23">
          <mxGeometry width="50" height="50" relative="1" as="geometry">
            <mxPoint x="560" y="1090" as="sourcePoint" />
            <mxPoint x="270" y="1110" as="targetPoint" />
          </mxGeometry>
        </mxCell>
        <mxCell id="QJ8W5nGV34yjtfyBnI5k-34" value="&lt;p style=&quot;margin:0px;margin-top:4px;text-align:center;&quot;&gt;&lt;b&gt;Waiter&lt;/b&gt;&lt;/p&gt;&lt;hr size=&quot;1&quot;&gt;+WaiterID&lt;div style=&quot;height:2px;&quot;&gt;&lt;/div&gt;&lt;hr size=&quot;1&quot;&gt;&lt;div style=&quot;height:2px;&quot;&gt;&lt;/div&gt;" style="verticalAlign=top;align=left;overflow=fill;fontSize=12;fontFamily=Helvetica;html=1;" vertex="1" parent="1">
          <mxGeometry x="135" y="170" width="140" height="60" as="geometry" />
        </mxCell>
        <mxCell id="QJ8W5nGV34yjtfyBnI5k-35" value="&lt;p style=&quot;margin:0px;margin-top:4px;text-align:center;&quot;&gt;&lt;b&gt;Tables&lt;/b&gt;&lt;/p&gt;&lt;hr size=&quot;1&quot;&gt;+TableNo&lt;br&gt;+SeatingCapacity&lt;br&gt;+Booking&lt;br&gt;&lt;div style=&quot;height:2px;&quot;&gt;&lt;/div&gt;&lt;hr size=&quot;1&quot;&gt;&lt;div style=&quot;height:2px;&quot;&gt;&lt;/div&gt;" style="verticalAlign=top;align=left;overflow=fill;fontSize=12;fontFamily=Helvetica;html=1;" vertex="1" parent="1">
          <mxGeometry x="135" y="320" width="140" height="90" as="geometry" />
        </mxCell>
        <mxCell id="5LT3DK3DNvpg61izSW0O-1" value="+Senior" style="text;html=1;strokeColor=none;fillColor=none;align=center;verticalAlign=middle;whiteSpace=wrap;rounded=0;" vertex="1" parent="1">
          <mxGeometry x="210" y="150" width="80" height="30" as="geometry" />
        </mxCell>
        <mxCell id="5LT3DK3DNvpg61izSW0O-2" value="&lt;p style=&quot;margin:0px;margin-top:4px;text-align:center;&quot;&gt;&lt;b&gt;Order&lt;/b&gt;&lt;/p&gt;&lt;hr size=&quot;1&quot;&gt;+OrderNo&lt;br&gt;+OrderDate&lt;br&gt;&lt;hr size=&quot;1&quot;&gt;&lt;div style=&quot;height:2px;&quot;&gt;&lt;/div&gt;" style="verticalAlign=top;align=left;overflow=fill;fontSize=12;fontFamily=Helvetica;html=1;" vertex="1" parent="1">
          <mxGeometry x="350" y="230" width="140" height="90" as="geometry" />
        </mxCell>
        <mxCell id="5LT3DK3DNvpg61izSW0O-4" value="Take" style="endArrow=none;html=1;rounded=0;entryX=1;entryY=1;entryDx=0;entryDy=0;exitX=1;exitY=0;exitDx=0;exitDy=0;" edge="1" parent="1" source="QJ8W5nGV34yjtfyBnI5k-35" target="QJ8W5nGV34yjtfyBnI5k-34">
          <mxGeometry width="50" height="50" relative="1" as="geometry">
            <mxPoint x="145" y="330" as="sourcePoint" />
            <mxPoint x="145" y="240" as="targetPoint" />
          </mxGeometry>
        </mxCell>
        <mxCell id="5LT3DK3DNvpg61izSW0O-6" value="" style="endArrow=none;dashed=1;html=1;rounded=0;exitX=0.5;exitY=0;exitDx=0;exitDy=0;entryX=0;entryY=0.5;entryDx=0;entryDy=0;" edge="1" parent="1" target="5LT3DK3DNvpg61izSW0O-2">
          <mxGeometry width="50" height="50" relative="1" as="geometry">
            <mxPoint x="290" y="274.66999999999996" as="sourcePoint" />
            <mxPoint x="340" y="275" as="targetPoint" />
          </mxGeometry>
        </mxCell>
        <mxCell id="5LT3DK3DNvpg61izSW0O-7" value="&lt;p style=&quot;margin:0px;margin-top:4px;text-align:center;&quot;&gt;&lt;b&gt;Drinks&lt;/b&gt;&lt;/p&gt;&lt;hr size=&quot;1&quot;&gt;+DrinkID&lt;div style=&quot;height:2px;&quot;&gt;&lt;/div&gt;&lt;hr size=&quot;1&quot;&gt;&lt;div style=&quot;height:2px;&quot;&gt;&lt;/div&gt;" style="verticalAlign=top;align=left;overflow=fill;fontSize=12;fontFamily=Helvetica;html=1;" vertex="1" parent="1">
          <mxGeometry x="350" y="410" width="140" height="60" as="geometry" />
        </mxCell>
        <mxCell id="5LT3DK3DNvpg61izSW0O-8" value="&lt;p style=&quot;margin:0px;margin-top:4px;text-align:center;&quot;&gt;&lt;b&gt;Dishes&lt;/b&gt;&lt;/p&gt;&lt;hr size=&quot;1&quot;&gt;+DishID&lt;div style=&quot;height:2px;&quot;&gt;&lt;/div&gt;&lt;hr size=&quot;1&quot;&gt;&lt;div style=&quot;height:2px;&quot;&gt;&lt;/div&gt;" style="verticalAlign=top;align=left;overflow=fill;fontSize=12;fontFamily=Helvetica;html=1;" vertex="1" parent="1">
          <mxGeometry x="350" y="70" width="140" height="60" as="geometry" />
        </mxCell>
        <mxCell id="Bq5CgW6Z1WyjbavSgT2u-1" value="&lt;p style=&quot;margin:0px;margin-top:4px;text-align:center;&quot;&gt;&lt;b&gt;Soft Drinks&lt;/b&gt;&lt;/p&gt;&lt;hr size=&quot;1&quot;&gt;+Supplier Identification&lt;div style=&quot;height:2px;&quot;&gt;&lt;br&gt;&lt;/div&gt;&lt;hr size=&quot;1&quot;&gt;&lt;div style=&quot;height:2px;&quot;&gt;&lt;br&gt;&lt;/div&gt;" style="verticalAlign=top;align=left;overflow=fill;fontSize=12;fontFamily=Helvetica;html=1;" vertex="1" parent="1">
          <mxGeometry x="200" y="580" width="140" height="60" as="geometry" />
        </mxCell>
        <mxCell id="Bq5CgW6Z1WyjbavSgT2u-2" value="&lt;p style=&quot;margin:0px;margin-top:4px;text-align:center;&quot;&gt;&lt;b&gt;Beer&lt;/b&gt;&lt;/p&gt;&lt;hr size=&quot;1&quot;&gt;+Alcohol Percentage&lt;div style=&quot;height:2px;&quot;&gt;&lt;br&gt;&lt;/div&gt;&lt;hr size=&quot;1&quot;&gt;&lt;div style=&quot;height:2px;&quot;&gt;&lt;/div&gt;" style="verticalAlign=top;align=left;overflow=fill;fontSize=12;fontFamily=Helvetica;html=1;" vertex="1" parent="1">
          <mxGeometry x="350" y="580" width="140" height="60" as="geometry" />
        </mxCell>
        <mxCell id="Bq5CgW6Z1WyjbavSgT2u-3" value="" style="endArrow=block;endSize=16;endFill=0;html=1;rounded=0;exitX=0.5;exitY=0;exitDx=0;exitDy=0;entryX=0;entryY=1;entryDx=0;entryDy=0;" edge="1" parent="1" source="Bq5CgW6Z1WyjbavSgT2u-1" target="5LT3DK3DNvpg61izSW0O-7">
          <mxGeometry width="160" relative="1" as="geometry">
            <mxPoint x="485" y="550" as="sourcePoint" />
            <mxPoint x="305" y="480" as="targetPoint" />
          </mxGeometry>
        </mxCell>
        <mxCell id="Bq5CgW6Z1WyjbavSgT2u-4" value="" style="endArrow=block;endSize=16;endFill=0;html=1;rounded=0;exitX=0.5;exitY=0;exitDx=0;exitDy=0;entryX=0.5;entryY=1;entryDx=0;entryDy=0;" edge="1" parent="1" source="Bq5CgW6Z1WyjbavSgT2u-2" target="5LT3DK3DNvpg61izSW0O-7">
          <mxGeometry width="160" relative="1" as="geometry">
            <mxPoint x="250" y="610" as="sourcePoint" />
            <mxPoint x="375" y="480" as="targetPoint" />
          </mxGeometry>
        </mxCell>
        <mxCell id="Bq5CgW6Z1WyjbavSgT2u-5" value="&lt;p style=&quot;margin:0px;margin-top:4px;text-align:center;&quot;&gt;&lt;b&gt;Wine&lt;/b&gt;&lt;/p&gt;&lt;hr size=&quot;1&quot;&gt;+Production Country&lt;div style=&quot;height:2px;&quot;&gt;&lt;br&gt;&lt;/div&gt;&lt;hr size=&quot;1&quot;&gt;&lt;div style=&quot;height:2px;&quot;&gt;&lt;/div&gt;" style="verticalAlign=top;align=left;overflow=fill;fontSize=12;fontFamily=Helvetica;html=1;" vertex="1" parent="1">
          <mxGeometry x="500" y="580" width="140" height="60" as="geometry" />
        </mxCell>
        <mxCell id="Bq5CgW6Z1WyjbavSgT2u-6" value="" style="endArrow=block;endSize=16;endFill=0;html=1;rounded=0;exitX=0.5;exitY=0;exitDx=0;exitDy=0;entryX=0.75;entryY=1;entryDx=0;entryDy=0;" edge="1" parent="1" source="Bq5CgW6Z1WyjbavSgT2u-5">
          <mxGeometry width="160" relative="1" as="geometry">
            <mxPoint x="525" y="590" as="sourcePoint" />
            <mxPoint x="490" y="470" as="targetPoint" />
          </mxGeometry>
        </mxCell>
        <mxCell id="Bq5CgW6Z1WyjbavSgT2u-7" value="0..*" style="text;html=1;strokeColor=none;fillColor=none;align=center;verticalAlign=middle;whiteSpace=wrap;rounded=0;" vertex="1" parent="1">
          <mxGeometry x="225" y="230" width="60" height="30" as="geometry" />
        </mxCell>
        <mxCell id="Bq5CgW6Z1WyjbavSgT2u-8" value="1..*" style="text;html=1;strokeColor=none;fillColor=none;align=center;verticalAlign=middle;whiteSpace=wrap;rounded=0;" vertex="1" parent="1">
          <mxGeometry x="225" y="290" width="60" height="30" as="geometry" />
        </mxCell>
        <mxCell id="Bq5CgW6Z1WyjbavSgT2u-9" value="0..*" style="text;html=1;strokeColor=none;fillColor=none;align=center;verticalAlign=middle;whiteSpace=wrap;rounded=0;" vertex="1" parent="1">
          <mxGeometry x="370" y="320" width="60" height="30" as="geometry" />
        </mxCell>
        <mxCell id="Bq5CgW6Z1WyjbavSgT2u-10" value="0..*" style="text;html=1;strokeColor=none;fillColor=none;align=center;verticalAlign=middle;whiteSpace=wrap;rounded=0;" vertex="1" parent="1">
          <mxGeometry x="370" y="380" width="60" height="30" as="geometry" />
        </mxCell>
        <mxCell id="Bq5CgW6Z1WyjbavSgT2u-11" value="Contains" style="endArrow=none;html=1;rounded=0;entryX=0.5;entryY=1;entryDx=0;entryDy=0;exitX=0.5;exitY=0;exitDx=0;exitDy=0;" edge="1" parent="1" source="5LT3DK3DNvpg61izSW0O-7" target="5LT3DK3DNvpg61izSW0O-2">
          <mxGeometry width="50" height="50" relative="1" as="geometry">
            <mxPoint x="360" y="400" as="sourcePoint" />
            <mxPoint x="360" y="310" as="targetPoint" />
          </mxGeometry>
        </mxCell>
        <mxCell id="Bq5CgW6Z1WyjbavSgT2u-12" value="0..*" style="text;html=1;strokeColor=none;fillColor=none;align=center;verticalAlign=middle;whiteSpace=wrap;rounded=0;" vertex="1" parent="1">
          <mxGeometry x="410" y="130" width="60" height="30" as="geometry" />
        </mxCell>
        <mxCell id="Bq5CgW6Z1WyjbavSgT2u-13" value="0..*" style="text;html=1;strokeColor=none;fillColor=none;align=center;verticalAlign=middle;whiteSpace=wrap;rounded=0;" vertex="1" parent="1">
          <mxGeometry x="410" y="200" width="60" height="30" as="geometry" />
        </mxCell>
        <mxCell id="Bq5CgW6Z1WyjbavSgT2u-14" value="Contains" style="endArrow=none;html=1;rounded=0;entryX=0.5;entryY=1;entryDx=0;entryDy=0;exitX=0.5;exitY=0;exitDx=0;exitDy=0;" edge="1" parent="1" source="5LT3DK3DNvpg61izSW0O-2" target="5LT3DK3DNvpg61izSW0O-8">
          <mxGeometry width="50" height="50" relative="1" as="geometry">
            <mxPoint x="560" y="220" as="sourcePoint" />
            <mxPoint x="560" y="130" as="targetPoint" />
          </mxGeometry>
        </mxCell>
        <mxCell id="Bq5CgW6Z1WyjbavSgT2u-15" value="&lt;p style=&quot;margin:0px;margin-top:4px;text-align:center;&quot;&gt;&lt;b&gt;Bill&lt;/b&gt;&lt;/p&gt;&lt;hr size=&quot;1&quot;&gt;+BillNo&lt;br&gt;+DateOfBill&lt;br&gt;+GSTAmt&lt;br&gt;+PayableBillAmt&lt;br&gt;&lt;hr size=&quot;1&quot;&gt;&lt;div style=&quot;height:2px;&quot;&gt;&lt;/div&gt;" style="verticalAlign=top;align=left;overflow=fill;fontSize=12;fontFamily=Helvetica;html=1;" vertex="1" parent="1">
          <mxGeometry x="600" y="225" width="140" height="100" as="geometry" />
        </mxCell>
        <mxCell id="Bq5CgW6Z1WyjbavSgT2u-16" value="Settled In" style="endArrow=none;html=1;rounded=0;entryX=0;entryY=0.5;entryDx=0;entryDy=0;exitX=1;exitY=0.5;exitDx=0;exitDy=0;" edge="1" parent="1" source="5LT3DK3DNvpg61izSW0O-2" target="Bq5CgW6Z1WyjbavSgT2u-15">
          <mxGeometry width="50" height="50" relative="1" as="geometry">
            <mxPoint x="430" y="420" as="sourcePoint" />
            <mxPoint x="430" y="330" as="targetPoint" />
          </mxGeometry>
        </mxCell>
        <mxCell id="Bq5CgW6Z1WyjbavSgT2u-17" value="1" style="text;html=1;strokeColor=none;fillColor=none;align=center;verticalAlign=middle;whiteSpace=wrap;rounded=0;" vertex="1" parent="1">
          <mxGeometry x="470" y="250" width="60" height="30" as="geometry" />
        </mxCell>
        <mxCell id="Bq5CgW6Z1WyjbavSgT2u-18" value="1..*" style="text;html=1;strokeColor=none;fillColor=none;align=center;verticalAlign=middle;whiteSpace=wrap;rounded=0;" vertex="1" parent="1">
          <mxGeometry x="560" y="250" width="60" height="30" as="geometry" />
        </mxCell>
        <mxCell id="Bq5CgW6Z1WyjbavSgT2u-21" value="&lt;p style=&quot;margin:0px;margin-top:4px;text-align:center;&quot;&gt;&lt;b&gt;Payment&lt;/b&gt;&lt;/p&gt;&lt;hr size=&quot;1&quot;&gt;+PaymentNo&lt;br&gt;&lt;hr size=&quot;1&quot;&gt;&lt;div style=&quot;height:2px;&quot;&gt;&lt;/div&gt;" style="verticalAlign=top;align=left;overflow=fill;fontSize=12;fontFamily=Helvetica;html=1;" vertex="1" parent="1">
          <mxGeometry x="600" y="410" width="140" height="60" as="geometry" />
        </mxCell>
        <mxCell id="Bq5CgW6Z1WyjbavSgT2u-25" value="1" style="text;html=1;strokeColor=none;fillColor=none;align=center;verticalAlign=middle;whiteSpace=wrap;rounded=0;" vertex="1" parent="1">
          <mxGeometry x="650" y="320" width="60" height="30" as="geometry" />
        </mxCell>
        <mxCell id="Bq5CgW6Z1WyjbavSgT2u-26" value="1..*" style="text;html=1;strokeColor=none;fillColor=none;align=center;verticalAlign=middle;whiteSpace=wrap;rounded=0;" vertex="1" parent="1">
          <mxGeometry x="650" y="380" width="60" height="30" as="geometry" />
        </mxCell>
        <mxCell id="Bq5CgW6Z1WyjbavSgT2u-27" value="Paid in" style="endArrow=none;html=1;rounded=0;entryX=0.5;entryY=1;entryDx=0;entryDy=0;exitX=0.5;exitY=0;exitDx=0;exitDy=0;" edge="1" parent="1" source="Bq5CgW6Z1WyjbavSgT2u-21" target="Bq5CgW6Z1WyjbavSgT2u-15">
          <mxGeometry width="50" height="50" relative="1" as="geometry">
            <mxPoint x="770" y="410" as="sourcePoint" />
            <mxPoint x="770" y="310" as="targetPoint" />
          </mxGeometry>
        </mxCell>
      </root>
    </mxGraphModel>
  </diagram>
</mxfile>
